{"glyphs":{"0":{"ha":826,"x_min":0,"x_max":0,"o":"m 753 0 l 753 972 l 72 972 l 72 0 z m 461 194 l 364 194 l 364 778 l 461 778 z "},"1":{"ha":632,"x_min":0,"x_max":0,"o":"m 558 0 l 558 972 l 267 972 l 267 875 l 72 875 l 72 681 l 267 681 l 267 0 z "},"2":{"ha":826,"x_min":0,"x_max":0,"o":"m 753 0 l 753 194 l 364 194 l 364 389 l 753 389 l 753 972 l 72 972 l 72 778 l 461 778 l 461 583 l 72 583 l 72 0 z "},"3":{"ha":826,"x_min":0,"x_max":0,"o":"m 753 0 l 753 972 l 72 972 l 72 778 l 461 778 l 461 583 l 169 583 l 169 389 l 461 389 l 461 194 l 72 194 l 72 0 z "},"4":{"ha":826,"x_min":0,"x_max":0,"o":"m 461 389 l 267 389 l 267 486 l 364 486 l 364 679 l 461 679 z m 753 0 l 753 972 l 461 972 l 461 875 l 267 875 l 267 778 l 169 778 l 169 583 l 72 583 l 72 194 l 461 194 l 461 0 z "},"5":{"ha":826,"x_min":0,"x_max":0,"o":"m 753 0 l 753 583 l 364 583 l 364 778 l 753 778 l 753 972 l 72 972 l 72 389 l 461 389 l 461 194 l 72 194 l 72 0 z "},"6":{"ha":826,"x_min":0,"x_max":0,"o":"m 753 0 l 753 583 l 364 583 l 364 778 l 753 778 l 753 972 l 72 972 l 72 0 z m 461 194 l 364 194 l 364 389 l 461 389 z "},"7":{"ha":826,"x_min":0,"x_max":0,"o":"m 461 0 l 461 194 l 558 194 l 558 389 l 656 389 l 656 583 l 753 583 l 753 972 l 72 972 l 72 778 l 461 778 l 461 583 l 364 583 l 364 389 l 267 389 l 267 194 l 169 194 l 169 0 z "},"8":{"ha":826,"x_min":0,"x_max":0,"o":"m 753 0 l 753 486 l 656 486 l 656 583 l 753 583 l 753 972 l 72 972 l 72 583 l 169 583 l 169 486 l 72 486 l 72 0 z m 461 583 l 364 583 l 364 778 l 461 778 z m 461 194 l 364 194 l 364 389 l 461 389 z "},"9":{"ha":826,"x_min":0,"x_max":0,"o":"m 753 0 l 753 972 l 72 972 l 72 389 l 461 389 l 461 194 l 72 194 l 72 0 z m 461 583 l 364 583 l 364 778 l 461 778 z "},"¤":{"ha":826,"x_min":0,"x_max":0,"o":"m 753 0 l 753 972 l 72 972 l 72 0 z m 558 194 l 267 194 l 267 778 l 558 778 z "},"§":{"ha":826,"x_min":0,"x_max":0,"o":"m 753 0 l 753 972 l 72 972 l 72 0 z m 558 194 l 267 194 l 267 778 l 558 778 z "},"ª":{"ha":826,"x_min":0,"x_max":0,"o":"m 753 0 l 753 972 l 72 972 l 72 0 z m 558 194 l 267 194 l 267 778 l 558 778 z "},"ŉ":{"ha":826,"x_min":0,"x_max":0,"o":"m 753 0 l 753 972 l 72 972 l 72 0 z m 558 194 l 267 194 l 267 778 l 558 778 z "},"·":{"ha":826,"x_min":0,"x_max":0,"o":"m 753 0 l 753 972 l 72 972 l 72 0 z m 558 194 l 267 194 l 267 778 l 558 778 z "},"Ḡ":{"ha":826,"x_min":0,"x_max":0,"o":"m 753 0 l 753 972 l 72 972 l 72 0 z m 558 194 l 267 194 l 267 778 l 558 778 z "},"ḡ":{"ha":826,"x_min":0,"x_max":0,"o":"m 753 0 l 753 972 l 72 972 l 72 0 z m 558 194 l 267 194 l 267 778 l 558 778 z "},"‖":{"ha":826,"x_min":0,"x_max":0,"o":"m 753 0 l 753 972 l 72 972 l 72 0 z m 558 194 l 267 194 l 267 778 l 558 778 z "},"‗":{"ha":826,"x_min":0,"x_max":0,"o":"m 753 0 l 753 972 l 72 972 l 72 0 z m 558 194 l 267 194 l 267 778 l 558 778 z "},"‛":{"ha":826,"x_min":0,"x_max":0,"o":"m 753 0 l 753 972 l 72 972 l 72 0 z m 558 194 l 267 194 l 267 778 l 558 778 z "},"‟":{"ha":826,"x_min":0,"x_max":0,"o":"m 753 0 l 753 972 l 72 972 l 72 0 z m 558 194 l 267 194 l 267 778 l 558 778 z "},"\u0000":{"ha":0,"x_min":0,"x_max":0,"o":""},"\r":{"ha":0,"x_min":0,"x_max":0,"o":""}," ":{"ha":340,"x_min":0,"x_max":0,"o":""}," ":{"ha":340,"x_min":0,"x_max":0,"o":""},"A":{"ha":826,"x_min":0,"x_max":0,"o":"m 753 0 l 753 972 l 72 972 l 72 0 l 364 0 l 364 389 l 461 389 l 461 0 z m 461 583 l 364 583 l 364 778 l 461 778 z "},"B":{"ha":826,"x_min":0,"x_max":0,"o":"m 753 0 l 753 486 l 656 486 l 656 583 l 753 583 l 753 972 l 72 972 l 72 0 z m 461 583 l 364 583 l 364 778 l 461 778 z m 461 194 l 364 194 l 364 389 l 461 389 z "},"C":{"ha":729,"x_min":0,"x_max":0,"o":"m 656 0 l 656 194 l 364 194 l 364 778 l 656 778 l 656 972 l 72 972 l 72 0 z "},"D":{"ha":826,"x_min":0,"x_max":0,"o":"m 656 0 l 656 97 l 753 97 l 753 875 l 656 875 l 656 972 l 72 972 l 72 0 z m 461 194 l 364 194 l 364 778 l 461 778 z "},"E":{"ha":826,"x_min":0,"x_max":0,"o":"m 753 0 l 753 194 l 364 194 l 364 389 l 656 389 l 656 583 l 364 583 l 364 778 l 753 778 l 753 972 l 72 972 l 72 0 z "},"F":{"ha":826,"x_min":0,"x_max":0,"o":"m 364 0 l 364 389 l 656 389 l 656 583 l 364 583 l 364 778 l 753 778 l 753 972 l 72 972 l 72 0 z "},"G":{"ha":826,"x_min":0,"x_max":0,"o":"m 753 0 l 753 583 l 461 583 l 461 194 l 364 194 l 364 778 l 753 778 l 753 972 l 72 972 l 72 0 z "},"H":{"ha":826,"x_min":0,"x_max":0,"o":"m 753 0 l 753 972 l 461 972 l 461 583 l 364 583 l 364 972 l 72 972 l 72 0 l 364 0 l 364 389 l 461 389 l 461 0 z "},"I":{"ha":438,"x_min":0,"x_max":0,"o":"m 364 0 l 364 972 l 72 972 l 72 0 z "},"J":{"ha":826,"x_min":0,"x_max":0,"o":"m 753 0 l 753 972 l 461 972 l 461 194 l 364 194 l 364 389 l 72 389 l 72 0 z "},"K":{"ha":826,"x_min":0,"x_max":0,"o":"m 753 0 l 753 486 l 558 486 l 558 583 l 753 583 l 753 972 l 461 972 l 461 681 l 364 681 l 364 972 l 72 972 l 72 0 l 364 0 l 364 292 l 461 292 l 461 0 z "},"L":{"ha":729,"x_min":0,"x_max":0,"o":"m 656 0 l 656 194 l 364 194 l 364 972 l 72 972 l 72 0 z "},"M":{"ha":1118,"x_min":0,"x_max":0,"o":"m 1044 0 l 1044 972 l 753 972 l 753 778 l 656 778 l 656 583 l 461 583 l 461 778 l 364 778 l 364 972 l 72 972 l 72 0 l 364 0 l 364 389 l 461 389 l 461 194 l 656 194 l 656 389 l 753 389 l 753 0 z "},"N":{"ha":924,"x_min":0,"x_max":0,"o":"m 850 0 l 850 972 l 558 972 l 558 583 l 461 583 l 461 778 l 364 778 l 364 972 l 72 972 l 72 0 l 364 0 l 364 389 l 461 389 l 461 194 l 558 194 l 558 0 z "},"O":{"ha":826,"x_min":0,"x_max":0,"o":"m 753 0 l 753 972 l 72 972 l 72 0 z m 461 194 l 364 194 l 364 778 l 461 778 z "},"P":{"ha":826,"x_min":0,"x_max":0,"o":"m 364 0 l 364 389 l 753 389 l 753 972 l 72 972 l 72 0 z m 461 583 l 364 583 l 364 778 l 461 778 z "},"Q":{"ha":854,"x_min":0,"x_max":0,"o":"m 850 0 l 850 194 l 753 194 l 753 972 l 72 972 l 72 0 z m 461 194 l 364 194 l 364 778 l 461 778 z "},"R":{"ha":826,"x_min":0,"x_max":0,"o":"m 753 0 l 753 486 l 656 486 l 656 583 l 753 583 l 753 972 l 72 972 l 72 0 l 364 0 l 364 389 l 461 389 l 461 0 z m 461 583 l 364 583 l 364 778 l 461 778 z "},"S":{"ha":826,"x_min":0,"x_max":0,"o":"m 753 0 l 753 583 l 364 583 l 364 778 l 753 778 l 753 972 l 72 972 l 72 389 l 461 389 l 461 194 l 72 194 l 72 0 z "},"T":{"ha":826,"x_min":0,"x_max":0,"o":"m 558 0 l 558 778 l 753 778 l 753 972 l 72 972 l 72 778 l 267 778 l 267 0 z "},"U":{"ha":826,"x_min":0,"x_max":0,"o":"m 753 0 l 753 972 l 461 972 l 461 194 l 364 194 l 364 972 l 72 972 l 72 0 z "},"V":{"ha":826,"x_min":0,"x_max":0,"o":"m 558 0 l 558 194 l 656 194 l 656 389 l 753 389 l 753 972 l 461 972 l 461 583 l 364 583 l 364 972 l 72 972 l 72 389 l 169 389 l 169 194 l 267 194 l 267 0 z "},"W":{"ha":1118,"x_min":0,"x_max":0,"o":"m 947 0 l 947 194 l 1044 194 l 1044 972 l 753 972 l 753 486 l 656 486 l 656 681 l 461 681 l 461 486 l 364 486 l 364 972 l 72 972 l 72 194 l 169 194 l 169 0 l 461 0 l 461 292 l 656 292 l 656 0 z "},"X":{"ha":826,"x_min":0,"x_max":0,"o":"m 753 0 l 753 486 l 558 486 l 558 583 l 753 583 l 753 972 l 461 972 l 461 681 l 364 681 l 364 972 l 72 972 l 72 583 l 267 583 l 267 486 l 72 486 l 72 0 l 364 0 l 364 292 l 461 292 l 461 0 z "},"Y":{"ha":826,"x_min":0,"x_max":0,"o":"m 558 0 l 558 486 l 753 486 l 753 972 l 461 972 l 461 681 l 364 681 l 364 972 l 72 972 l 72 486 l 267 486 l 267 0 z "},"Z":{"ha":826,"x_min":0,"x_max":0,"o":"m 753 0 l 753 194 l 364 194 l 364 389 l 558 389 l 558 486 l 753 486 l 753 972 l 72 972 l 72 778 l 461 778 l 461 583 l 267 583 l 267 486 l 72 486 l 72 0 z "},"a":{"ha":826,"x_min":0,"x_max":0,"o":"m 753 0 l 753 972 l 72 972 l 72 0 l 364 0 l 364 389 l 461 389 l 461 0 z m 461 583 l 364 583 l 364 778 l 461 778 z "},"b":{"ha":826,"x_min":0,"x_max":0,"o":"m 753 0 l 753 486 l 656 486 l 656 583 l 753 583 l 753 972 l 72 972 l 72 0 z m 461 583 l 364 583 l 364 778 l 461 778 z m 461 194 l 364 194 l 364 389 l 461 389 z "},"c":{"ha":729,"x_min":0,"x_max":0,"o":"m 656 0 l 656 194 l 364 194 l 364 778 l 656 778 l 656 972 l 72 972 l 72 0 z "},"d":{"ha":826,"x_min":0,"x_max":0,"o":"m 656 0 l 656 97 l 753 97 l 753 875 l 656 875 l 656 972 l 72 972 l 72 0 z m 461 194 l 364 194 l 364 778 l 461 778 z "},"e":{"ha":826,"x_min":0,"x_max":0,"o":"m 753 0 l 753 194 l 364 194 l 364 389 l 656 389 l 656 583 l 364 583 l 364 778 l 753 778 l 753 972 l 72 972 l 72 0 z "},"f":{"ha":826,"x_min":0,"x_max":0,"o":"m 364 0 l 364 389 l 656 389 l 656 583 l 364 583 l 364 778 l 753 778 l 753 972 l 72 972 l 72 0 z "},"g":{"ha":826,"x_min":0,"x_max":0,"o":"m 753 0 l 753 583 l 461 583 l 461 194 l 364 194 l 364 778 l 753 778 l 753 972 l 72 972 l 72 0 z "},"h":{"ha":826,"x_min":0,"x_max":0,"o":"m 753 0 l 753 972 l 461 972 l 461 583 l 364 583 l 364 972 l 72 972 l 72 0 l 364 0 l 364 389 l 461 389 l 461 0 z "},"i":{"ha":438,"x_min":0,"x_max":0,"o":"m 364 0 l 364 972 l 72 972 l 72 0 z "},"j":{"ha":826,"x_min":0,"x_max":0,"o":"m 753 0 l 753 972 l 461 972 l 461 194 l 364 194 l 364 389 l 72 389 l 72 0 z "},"k":{"ha":826,"x_min":0,"x_max":0,"o":"m 753 0 l 753 486 l 558 486 l 558 583 l 753 583 l 753 972 l 461 972 l 461 681 l 364 681 l 364 972 l 72 972 l 72 0 l 364 0 l 364 292 l 461 292 l 461 0 z "},"l":{"ha":729,"x_min":0,"x_max":0,"o":"m 656 0 l 656 194 l 364 194 l 364 972 l 72 972 l 72 0 z "},"m":{"ha":1118,"x_min":0,"x_max":0,"o":"m 1044 0 l 1044 972 l 753 972 l 753 778 l 656 778 l 656 583 l 461 583 l 461 778 l 364 778 l 364 972 l 72 972 l 72 0 l 364 0 l 364 389 l 461 389 l 461 194 l 656 194 l 656 389 l 753 389 l 753 0 z "},"n":{"ha":924,"x_min":0,"x_max":0,"o":"m 850 0 l 850 972 l 558 972 l 558 583 l 461 583 l 461 778 l 364 778 l 364 972 l 72 972 l 72 0 l 364 0 l 364 389 l 461 389 l 461 194 l 558 194 l 558 0 z "},"o":{"ha":826,"x_min":0,"x_max":0,"o":"m 753 0 l 753 972 l 72 972 l 72 0 z m 461 194 l 364 194 l 364 778 l 461 778 z "},"p":{"ha":826,"x_min":0,"x_max":0,"o":"m 364 0 l 364 389 l 753 389 l 753 972 l 72 972 l 72 0 z m 461 583 l 364 583 l 364 778 l 461 778 z "},"q":{"ha":854,"x_min":0,"x_max":0,"o":"m 850 0 l 850 194 l 753 194 l 753 972 l 72 972 l 72 0 z m 461 194 l 364 194 l 364 778 l 461 778 z "},"r":{"ha":826,"x_min":0,"x_max":0,"o":"m 753 0 l 753 486 l 656 486 l 656 583 l 753 583 l 753 972 l 72 972 l 72 0 l 364 0 l 364 389 l 461 389 l 461 0 z m 461 583 l 364 583 l 364 778 l 461 778 z "},"s":{"ha":826,"x_min":0,"x_max":0,"o":"m 753 0 l 753 583 l 364 583 l 364 778 l 753 778 l 753 972 l 72 972 l 72 389 l 461 389 l 461 194 l 72 194 l 72 0 z "},"t":{"ha":826,"x_min":0,"x_max":0,"o":"m 558 0 l 558 778 l 753 778 l 753 972 l 72 972 l 72 778 l 267 778 l 267 0 z "},"u":{"ha":826,"x_min":0,"x_max":0,"o":"m 753 0 l 753 972 l 461 972 l 461 194 l 364 194 l 364 972 l 72 972 l 72 0 z "},"v":{"ha":826,"x_min":0,"x_max":0,"o":"m 558 0 l 558 194 l 656 194 l 656 389 l 753 389 l 753 972 l 461 972 l 461 583 l 364 583 l 364 972 l 72 972 l 72 389 l 169 389 l 169 194 l 267 194 l 267 0 z "},"w":{"ha":1118,"x_min":0,"x_max":0,"o":"m 947 0 l 947 194 l 1044 194 l 1044 972 l 753 972 l 753 486 l 656 486 l 656 681 l 461 681 l 461 486 l 364 486 l 364 972 l 72 972 l 72 194 l 169 194 l 169 0 l 461 0 l 461 292 l 656 292 l 656 0 z "},"x":{"ha":826,"x_min":0,"x_max":0,"o":"m 753 0 l 753 486 l 558 486 l 558 583 l 753 583 l 753 972 l 461 972 l 461 681 l 364 681 l 364 972 l 72 972 l 72 583 l 267 583 l 267 486 l 72 486 l 72 0 l 364 0 l 364 292 l 461 292 l 461 0 z "},"y":{"ha":826,"x_min":0,"x_max":0,"o":"m 558 0 l 558 486 l 753 486 l 753 972 l 461 972 l 461 681 l 364 681 l 364 972 l 72 972 l 72 486 l 267 486 l 267 0 z "},"z":{"ha":826,"x_min":0,"x_max":0,"o":"m 753 0 l 753 194 l 364 194 l 364 389 l 558 389 l 558 486 l 753 486 l 753 972 l 72 972 l 72 778 l 461 778 l 461 583 l 267 583 l 267 486 l 72 486 l 72 0 z "},"À":{"ha":826,"x_min":0,"x_max":0,"o":"m 753 0 l 753 972 l 72 972 l 72 0 l 364 0 l 364 389 l 461 389 l 461 0 z m 461 583 l 364 583 l 364 778 l 461 778 z m 510 1042 l 510 1236 l 413 1236 l 413 1333 l 218 1333 l 218 1139 l 315 1139 l 315 1042 z "},"à":{"ha":826,"x_min":0,"x_max":0,"o":"m 753 0 l 753 972 l 72 972 l 72 0 l 364 0 l 364 389 l 461 389 l 461 0 z m 461 583 l 364 583 l 364 778 l 461 778 z m 510 1042 l 510 1236 l 413 1236 l 413 1333 l 218 1333 l 218 1139 l 315 1139 l 315 1042 z "},"Á":{"ha":826,"x_min":0,"x_max":0,"o":"m 753 0 l 753 972 l 72 972 l 72 0 l 364 0 l 364 389 l 461 389 l 461 0 z m 461 583 l 364 583 l 364 778 l 461 778 z m 607 1139 l 607 1333 l 413 1333 l 413 1236 l 315 1236 l 315 1042 l 510 1042 l 510 1139 z "},"á":{"ha":826,"x_min":0,"x_max":0,"o":"m 753 0 l 753 972 l 72 972 l 72 0 l 364 0 l 364 389 l 461 389 l 461 0 z m 461 583 l 364 583 l 364 778 l 461 778 z m 607 1139 l 607 1333 l 413 1333 l 413 1236 l 315 1236 l 315 1042 l 510 1042 l 510 1139 z "},"Â":{"ha":826,"x_min":0,"x_max":0,"o":"m 753 0 l 753 972 l 72 972 l 72 0 l 364 0 l 364 389 l 461 389 l 461 0 z m 461 583 l 364 583 l 364 778 l 461 778 z m 656 1042 l 656 1236 l 558 1236 l 558 1333 l 267 1333 l 267 1236 l 169 1236 l 169 1042 l 364 1042 l 364 1139 l 461 1139 l 461 1042 z "},"â":{"ha":826,"x_min":0,"x_max":0,"o":"m 753 0 l 753 972 l 72 972 l 72 0 l 364 0 l 364 389 l 461 389 l 461 0 z m 461 583 l 364 583 l 364 778 l 461 778 z m 656 1042 l 656 1236 l 558 1236 l 558 1333 l 267 1333 l 267 1236 l 169 1236 l 169 1042 l 364 1042 l 364 1139 l 461 1139 l 461 1042 z "},"Ã":{"ha":826,"x_min":0,"x_max":0,"o":"m 753 0 l 753 972 l 72 972 l 72 0 l 364 0 l 364 389 l 461 389 l 461 0 z m 461 583 l 364 583 l 364 778 l 461 778 z m 704 1139 l 704 1333 l 510 1333 l 510 1236 l 413 1236 l 413 1333 l 218 1333 l 218 1236 l 121 1236 l 121 1042 l 315 1042 l 315 1139 l 413 1139 l 413 1042 l 607 1042 l 607 1139 z "},"ã":{"ha":826,"x_min":0,"x_max":0,"o":"m 753 0 l 753 972 l 72 972 l 72 0 l 364 0 l 364 389 l 461 389 l 461 0 z m 461 583 l 364 583 l 364 778 l 461 778 z m 704 1139 l 704 1333 l 510 1333 l 510 1236 l 413 1236 l 413 1333 l 218 1333 l 218 1236 l 121 1236 l 121 1042 l 315 1042 l 315 1139 l 413 1139 l 413 1042 l 607 1042 l 607 1139 z "},"Ä":{"ha":826,"x_min":0,"x_max":0,"o":"m 753 0 l 753 972 l 72 972 l 72 0 l 364 0 l 364 389 l 461 389 l 461 0 z m 461 583 l 364 583 l 364 778 l 461 778 z m 364 1042 l 364 1236 l 169 1236 l 169 1042 z m 656 1042 l 656 1236 l 461 1236 l 461 1042 z "},"ä":{"ha":826,"x_min":0,"x_max":0,"o":"m 753 0 l 753 972 l 72 972 l 72 0 l 364 0 l 364 389 l 461 389 l 461 0 z m 461 583 l 364 583 l 364 778 l 461 778 z m 364 1042 l 364 1236 l 169 1236 l 169 1042 z m 656 1042 l 656 1236 l 461 1236 l 461 1042 z "},"Å":{"ha":826,"x_min":0,"x_max":0,"o":"m 753 0 l 753 972 l 558 972 l 558 1069 l 656 1069 l 656 1278 l 558 1278 l 558 1375 l 267 1375 l 267 1278 l 169 1278 l 169 1069 l 267 1069 l 267 972 l 72 972 l 72 0 l 364 0 l 364 389 l 461 389 l 461 0 z m 461 583 l 364 583 l 364 778 l 461 778 z m 461 1125 l 364 1125 l 364 1222 l 461 1222 z "},"å":{"ha":826,"x_min":0,"x_max":0,"o":"m 753 0 l 753 972 l 558 972 l 558 1069 l 656 1069 l 656 1278 l 558 1278 l 558 1375 l 267 1375 l 267 1278 l 169 1278 l 169 1069 l 267 1069 l 267 972 l 72 972 l 72 0 l 364 0 l 364 389 l 461 389 l 461 0 z m 461 583 l 364 583 l 364 778 l 461 778 z m 461 1125 l 364 1125 l 364 1222 l 461 1222 z "},"Ā":{"ha":826,"x_min":0,"x_max":0,"o":"m 753 0 l 753 972 l 72 972 l 72 0 l 364 0 l 364 389 l 461 389 l 461 0 z m 461 583 l 364 583 l 364 778 l 461 778 z m 656 1042 l 656 1236 l 169 1236 l 169 1042 z "},"ā":{"ha":826,"x_min":0,"x_max":0,"o":"m 753 0 l 753 972 l 72 972 l 72 0 l 364 0 l 364 389 l 461 389 l 461 0 z m 461 583 l 364 583 l 364 778 l 461 778 z m 656 1042 l 656 1236 l 169 1236 l 169 1042 z "},"Ă":{"ha":826,"x_min":0,"x_max":0,"o":"m 753 0 l 753 972 l 72 972 l 72 0 l 364 0 l 364 389 l 461 389 l 461 0 z m 461 583 l 364 583 l 364 778 l 461 778 z m 656 1042 l 656 1264 l 461 1264 l 461 1167 l 364 1167 l 364 1264 l 169 1264 l 169 1042 z "},"ă":{"ha":826,"x_min":0,"x_max":0,"o":"m 753 0 l 753 972 l 72 972 l 72 0 l 364 0 l 364 389 l 461 389 l 461 0 z m 461 583 l 364 583 l 364 778 l 461 778 z m 656 1042 l 656 1264 l 461 1264 l 461 1167 l 364 1167 l 364 1264 l 169 1264 l 169 1042 z "},"Ą":{"ha":826,"x_min":0,"x_max":0,"o":"m 753 -347 l 753 -153 l 656 -153 l 656 0 l 753 0 l 753 972 l 72 972 l 72 0 l 364 0 l 364 389 l 461 389 l 461 -347 z m 461 583 l 364 583 l 364 778 l 461 778 z "},"ą":{"ha":826,"x_min":0,"x_max":0,"o":"m 753 -347 l 753 -153 l 656 -153 l 656 0 l 753 0 l 753 972 l 72 972 l 72 0 l 364 0 l 364 389 l 461 389 l 461 -347 z m 461 583 l 364 583 l 364 778 l 461 778 z "},"Æ":{"ha":1215,"x_min":0,"x_max":0,"o":"m 1142 0 l 1142 194 l 753 194 l 753 389 l 1044 389 l 1044 583 l 753 583 l 753 778 l 1142 778 l 1142 972 l 72 972 l 72 0 l 364 0 l 364 389 l 461 389 l 461 0 z m 461 583 l 364 583 l 364 778 l 461 778 z "},"æ":{"ha":1215,"x_min":0,"x_max":0,"o":"m 1142 0 l 1142 194 l 753 194 l 753 389 l 1044 389 l 1044 583 l 753 583 l 753 778 l 1142 778 l 1142 972 l 72 972 l 72 0 l 364 0 l 364 389 l 461 389 l 461 0 z m 461 583 l 364 583 l 364 778 l 461 778 z "},"Ǽ":{"ha":1215,"x_min":0,"x_max":0,"o":"m 1142 0 l 1142 194 l 753 194 l 753 389 l 1044 389 l 1044 583 l 753 583 l 753 778 l 1142 778 l 1142 972 l 72 972 l 72 0 l 364 0 l 364 389 l 461 389 l 461 0 z m 461 583 l 364 583 l 364 778 l 461 778 z m 850 1139 l 850 1333 l 656 1333 l 656 1236 l 558 1236 l 558 1042 l 753 1042 l 753 1139 z "},"ǽ":{"ha":1215,"x_min":0,"x_max":0,"o":"m 1142 0 l 1142 194 l 753 194 l 753 389 l 1044 389 l 1044 583 l 753 583 l 753 778 l 1142 778 l 1142 972 l 72 972 l 72 0 l 364 0 l 364 389 l 461 389 l 461 0 z m 461 583 l 364 583 l 364 778 l 461 778 z m 850 1139 l 850 1333 l 656 1333 l 656 1236 l 558 1236 l 558 1042 l 753 1042 l 753 1139 z "},"Ḃ":{"ha":826,"x_min":0,"x_max":0,"o":"m 753 0 l 753 486 l 656 486 l 656 583 l 753 583 l 753 972 l 72 972 l 72 0 z m 461 583 l 364 583 l 364 778 l 461 778 z m 461 194 l 364 194 l 364 389 l 461 389 z m 510 1042 l 510 1236 l 315 1236 l 315 1042 z "},"ḃ":{"ha":826,"x_min":0,"x_max":0,"o":"m 753 0 l 753 486 l 656 486 l 656 583 l 753 583 l 753 972 l 72 972 l 72 0 z m 461 583 l 364 583 l 364 778 l 461 778 z m 461 194 l 364 194 l 364 389 l 461 389 z m 510 1042 l 510 1236 l 315 1236 l 315 1042 z "},"Ç":{"ha":729,"x_min":0,"x_max":0,"o":"m 510 -347 l 510 0 l 656 0 l 656 194 l 364 194 l 364 778 l 656 778 l 656 972 l 72 972 l 72 0 l 315 0 l 315 -153 l 218 -153 l 218 -347 z "},"ç":{"ha":729,"x_min":0,"x_max":0,"o":"m 510 -347 l 510 0 l 656 0 l 656 194 l 364 194 l 364 778 l 656 778 l 656 972 l 72 972 l 72 0 l 315 0 l 315 -153 l 218 -153 l 218 -347 z "},"Ĉ":{"ha":729,"x_min":0,"x_max":0,"o":"m 656 0 l 656 194 l 364 194 l 364 778 l 656 778 l 656 972 l 72 972 l 72 0 z m 607 1042 l 607 1236 l 510 1236 l 510 1333 l 218 1333 l 218 1236 l 121 1236 l 121 1042 l 315 1042 l 315 1139 l 413 1139 l 413 1042 z "},"ĉ":{"ha":729,"x_min":0,"x_max":0,"o":"m 656 0 l 656 194 l 364 194 l 364 778 l 656 778 l 656 972 l 72 972 l 72 0 z m 607 1042 l 607 1236 l 510 1236 l 510 1333 l 218 1333 l 218 1236 l 121 1236 l 121 1042 l 315 1042 l 315 1139 l 413 1139 l 413 1042 z "},"Ć":{"ha":729,"x_min":0,"x_max":0,"o":"m 656 0 l 656 194 l 364 194 l 364 778 l 656 778 l 656 972 l 72 972 l 72 0 z m 558 1139 l 558 1333 l 364 1333 l 364 1236 l 267 1236 l 267 1042 l 461 1042 l 461 1139 z "},"ć":{"ha":729,"x_min":0,"x_max":0,"o":"m 656 0 l 656 194 l 364 194 l 364 778 l 656 778 l 656 972 l 72 972 l 72 0 z m 558 1139 l 558 1333 l 364 1333 l 364 1236 l 267 1236 l 267 1042 l 461 1042 l 461 1139 z "},"Ċ":{"ha":729,"x_min":0,"x_max":0,"o":"m 656 0 l 656 194 l 364 194 l 364 778 l 656 778 l 656 972 l 72 972 l 72 0 z m 461 1042 l 461 1236 l 267 1236 l 267 1042 z "},"ċ":{"ha":729,"x_min":0,"x_max":0,"o":"m 656 0 l 656 194 l 364 194 l 364 778 l 656 778 l 656 972 l 72 972 l 72 0 z m 461 1042 l 461 1236 l 267 1236 l 267 1042 z "},"Č":{"ha":729,"x_min":0,"x_max":0,"o":"m 656 0 l 656 194 l 364 194 l 364 778 l 656 778 l 656 972 l 72 972 l 72 0 z m 510 1042 l 510 1139 l 607 1139 l 607 1333 l 413 1333 l 413 1236 l 315 1236 l 315 1333 l 121 1333 l 121 1139 l 218 1139 l 218 1042 z "},"č":{"ha":729,"x_min":0,"x_max":0,"o":"m 656 0 l 656 194 l 364 194 l 364 778 l 656 778 l 656 972 l 72 972 l 72 0 z m 510 1042 l 510 1139 l 607 1139 l 607 1333 l 413 1333 l 413 1236 l 315 1236 l 315 1333 l 121 1333 l 121 1139 l 218 1139 l 218 1042 z "},"Đ":{"ha":1104,"x_min":0,"x_max":0,"o":"m 933 0 l 933 97 l 1031 97 l 1031 875 l 933 875 l 933 972 l 225 972 l 225 583 l 86 583 l 86 389 l 225 389 l 225 0 z m 739 194 l 517 194 l 517 389 l 656 389 l 656 583 l 517 583 l 517 778 l 739 778 z "},"đ":{"ha":1104,"x_min":0,"x_max":0,"o":"m 933 0 l 933 97 l 1031 97 l 1031 875 l 933 875 l 933 972 l 211 972 l 211 583 l 72 583 l 72 389 l 211 389 l 211 0 z m 739 194 l 503 194 l 503 389 l 642 389 l 642 583 l 503 583 l 503 778 l 739 778 z "},"Ď":{"ha":826,"x_min":0,"x_max":0,"o":"m 656 0 l 656 97 l 753 97 l 753 875 l 656 875 l 656 972 l 72 972 l 72 0 z m 461 194 l 364 194 l 364 778 l 461 778 z m 558 1042 l 558 1139 l 656 1139 l 656 1333 l 461 1333 l 461 1236 l 364 1236 l 364 1333 l 169 1333 l 169 1139 l 267 1139 l 267 1042 z "},"ď":{"ha":826,"x_min":0,"x_max":0,"o":"m 656 0 l 656 97 l 753 97 l 753 875 l 656 875 l 656 972 l 72 972 l 72 0 z m 461 194 l 364 194 l 364 778 l 461 778 z m 558 1042 l 558 1139 l 656 1139 l 656 1333 l 461 1333 l 461 1236 l 364 1236 l 364 1333 l 169 1333 l 169 1139 l 267 1139 l 267 1042 z "},"Ḋ":{"ha":826,"x_min":0,"x_max":0,"o":"m 656 0 l 656 97 l 753 97 l 753 875 l 656 875 l 656 972 l 72 972 l 72 0 z m 461 194 l 364 194 l 364 778 l 461 778 z m 510 1042 l 510 1236 l 315 1236 l 315 1042 z "},"ḋ":{"ha":826,"x_min":0,"x_max":0,"o":"m 656 0 l 656 97 l 753 97 l 753 875 l 656 875 l 656 972 l 72 972 l 72 0 z m 461 194 l 364 194 l 364 778 l 461 778 z m 510 1042 l 510 1236 l 315 1236 l 315 1042 z "},"Ð":{"ha":1104,"x_min":0,"x_max":0,"o":"m 933 0 l 933 97 l 1031 97 l 1031 875 l 933 875 l 933 972 l 211 972 l 211 583 l 72 583 l 72 389 l 211 389 l 211 0 z m 739 194 l 503 194 l 503 389 l 642 389 l 642 583 l 503 583 l 503 778 l 739 778 z "},"ð":{"ha":1104,"x_min":0,"x_max":0,"o":"m 933 0 l 933 97 l 1031 97 l 1031 875 l 933 875 l 933 972 l 211 972 l 211 583 l 72 583 l 72 389 l 211 389 l 211 0 z m 739 194 l 503 194 l 503 389 l 642 389 l 642 583 l 503 583 l 503 778 l 739 778 z "},"È":{"ha":826,"x_min":0,"x_max":0,"o":"m 753 0 l 753 194 l 364 194 l 364 389 l 656 389 l 656 583 l 364 583 l 364 778 l 753 778 l 753 972 l 72 972 l 72 0 z m 558 1042 l 558 1236 l 461 1236 l 461 1333 l 267 1333 l 267 1139 l 364 1139 l 364 1042 z "},"è":{"ha":826,"x_min":0,"x_max":0,"o":"m 753 0 l 753 194 l 364 194 l 364 389 l 656 389 l 656 583 l 364 583 l 364 778 l 753 778 l 753 972 l 72 972 l 72 0 z m 558 1042 l 558 1236 l 461 1236 l 461 1333 l 267 1333 l 267 1139 l 364 1139 l 364 1042 z "},"É":{"ha":826,"x_min":0,"x_max":0,"o":"m 753 0 l 753 194 l 364 194 l 364 389 l 656 389 l 656 583 l 364 583 l 364 778 l 753 778 l 753 972 l 72 972 l 72 0 z m 607 1139 l 607 1333 l 413 1333 l 413 1236 l 315 1236 l 315 1042 l 510 1042 l 510 1139 z "},"é":{"ha":826,"x_min":0,"x_max":0,"o":"m 753 0 l 753 194 l 364 194 l 364 389 l 656 389 l 656 583 l 364 583 l 364 778 l 753 778 l 753 972 l 72 972 l 72 0 z m 607 1139 l 607 1333 l 413 1333 l 413 1236 l 315 1236 l 315 1042 l 510 1042 l 510 1139 z "},"Ê":{"ha":826,"x_min":0,"x_max":0,"o":"m 753 0 l 753 194 l 364 194 l 364 389 l 656 389 l 656 583 l 364 583 l 364 778 l 753 778 l 753 972 l 72 972 l 72 0 z m 656 1042 l 656 1236 l 558 1236 l 558 1333 l 267 1333 l 267 1236 l 169 1236 l 169 1042 l 364 1042 l 364 1139 l 461 1139 l 461 1042 z "},"ê":{"ha":826,"x_min":0,"x_max":0,"o":"m 753 0 l 753 194 l 364 194 l 364 389 l 656 389 l 656 583 l 364 583 l 364 778 l 753 778 l 753 972 l 72 972 l 72 0 z m 656 1042 l 656 1236 l 558 1236 l 558 1333 l 267 1333 l 267 1236 l 169 1236 l 169 1042 l 364 1042 l 364 1139 l 461 1139 l 461 1042 z "},"Ë":{"ha":826,"x_min":0,"x_max":0,"o":"m 753 0 l 753 194 l 364 194 l 364 389 l 656 389 l 656 583 l 364 583 l 364 778 l 753 778 l 753 972 l 72 972 l 72 0 z m 364 1042 l 364 1236 l 169 1236 l 169 1042 z m 656 1042 l 656 1236 l 461 1236 l 461 1042 z "},"ë":{"ha":826,"x_min":0,"x_max":0,"o":"m 753 0 l 753 194 l 364 194 l 364 389 l 656 389 l 656 583 l 364 583 l 364 778 l 753 778 l 753 972 l 72 972 l 72 0 z m 364 1042 l 364 1236 l 169 1236 l 169 1042 z m 656 1042 l 656 1236 l 461 1236 l 461 1042 z "},"Ē":{"ha":826,"x_min":0,"x_max":0,"o":"m 753 0 l 753 194 l 364 194 l 364 389 l 656 389 l 656 583 l 364 583 l 364 778 l 753 778 l 753 972 l 72 972 l 72 0 z m 656 1042 l 656 1236 l 169 1236 l 169 1042 z "},"ē":{"ha":826,"x_min":0,"x_max":0,"o":"m 753 0 l 753 194 l 364 194 l 364 389 l 656 389 l 656 583 l 364 583 l 364 778 l 753 778 l 753 972 l 72 972 l 72 0 z m 656 1042 l 656 1236 l 169 1236 l 169 1042 z "},"Ĕ":{"ha":826,"x_min":0,"x_max":0,"o":"m 753 0 l 753 194 l 364 194 l 364 389 l 656 389 l 656 583 l 364 583 l 364 778 l 753 778 l 753 972 l 72 972 l 72 0 z m 656 1042 l 656 1264 l 461 1264 l 461 1167 l 364 1167 l 364 1264 l 169 1264 l 169 1042 z "},"ĕ":{"ha":826,"x_min":0,"x_max":0,"o":"m 753 0 l 753 194 l 364 194 l 364 389 l 656 389 l 656 583 l 364 583 l 364 778 l 753 778 l 753 972 l 72 972 l 72 0 z m 656 1042 l 656 1264 l 461 1264 l 461 1167 l 364 1167 l 364 1264 l 169 1264 l 169 1042 z "},"Ė":{"ha":826,"x_min":0,"x_max":0,"o":"m 753 0 l 753 194 l 364 194 l 364 389 l 656 389 l 656 583 l 364 583 l 364 778 l 753 778 l 753 972 l 72 972 l 72 0 z m 510 1042 l 510 1236 l 315 1236 l 315 1042 z "},"ė":{"ha":826,"x_min":0,"x_max":0,"o":"m 753 0 l 753 194 l 364 194 l 364 389 l 656 389 l 656 583 l 364 583 l 364 778 l 753 778 l 753 972 l 72 972 l 72 0 z m 510 1042 l 510 1236 l 315 1236 l 315 1042 z "},"Ę":{"ha":826,"x_min":0,"x_max":0,"o":"m 753 -347 l 753 -153 l 656 -153 l 656 0 l 753 0 l 753 194 l 364 194 l 364 389 l 656 389 l 656 583 l 364 583 l 364 778 l 753 778 l 753 972 l 72 972 l 72 0 l 461 0 l 461 -347 z "},"ę":{"ha":826,"x_min":0,"x_max":0,"o":"m 753 -347 l 753 -153 l 656 -153 l 656 0 l 753 0 l 753 194 l 364 194 l 364 389 l 656 389 l 656 583 l 364 583 l 364 778 l 753 778 l 753 972 l 72 972 l 72 0 l 461 0 l 461 -347 z "},"Ě":{"ha":826,"x_min":0,"x_max":0,"o":"m 753 0 l 753 194 l 364 194 l 364 389 l 656 389 l 656 583 l 364 583 l 364 778 l 753 778 l 753 972 l 72 972 l 72 0 z m 558 1042 l 558 1139 l 656 1139 l 656 1333 l 461 1333 l 461 1236 l 364 1236 l 364 1333 l 169 1333 l 169 1139 l 267 1139 l 267 1042 z "},"ě":{"ha":826,"x_min":0,"x_max":0,"o":"m 753 0 l 753 194 l 364 194 l 364 389 l 656 389 l 656 583 l 364 583 l 364 778 l 753 778 l 753 972 l 72 972 l 72 0 z m 558 1042 l 558 1139 l 656 1139 l 656 1333 l 461 1333 l 461 1236 l 364 1236 l 364 1333 l 169 1333 l 169 1139 l 267 1139 l 267 1042 z "},"Ḟ":{"ha":826,"x_min":0,"x_max":0,"o":"m 364 0 l 364 389 l 656 389 l 656 583 l 364 583 l 364 778 l 753 778 l 753 972 l 72 972 l 72 0 z m 510 1042 l 510 1236 l 315 1236 l 315 1042 z "},"ḟ":{"ha":826,"x_min":0,"x_max":0,"o":"m 364 0 l 364 389 l 656 389 l 656 583 l 364 583 l 364 778 l 753 778 l 753 972 l 72 972 l 72 0 z m 510 1042 l 510 1236 l 315 1236 l 315 1042 z "},"Ĝ":{"ha":826,"x_min":0,"x_max":0,"o":"m 753 0 l 753 583 l 461 583 l 461 194 l 364 194 l 364 778 l 753 778 l 753 972 l 72 972 l 72 0 z m 656 1042 l 656 1236 l 558 1236 l 558 1333 l 267 1333 l 267 1236 l 169 1236 l 169 1042 l 364 1042 l 364 1139 l 461 1139 l 461 1042 z "},"ĝ":{"ha":826,"x_min":0,"x_max":0,"o":"m 753 0 l 753 583 l 461 583 l 461 194 l 364 194 l 364 778 l 753 778 l 753 972 l 72 972 l 72 0 z m 656 1042 l 656 1236 l 558 1236 l 558 1333 l 267 1333 l 267 1236 l 169 1236 l 169 1042 l 364 1042 l 364 1139 l 461 1139 l 461 1042 z "},"Ğ":{"ha":826,"x_min":0,"x_max":0,"o":"m 753 0 l 753 583 l 461 583 l 461 194 l 364 194 l 364 778 l 753 778 l 753 972 l 72 972 l 72 0 z m 656 1042 l 656 1264 l 461 1264 l 461 1167 l 364 1167 l 364 1264 l 169 1264 l 169 1042 z "},"ğ":{"ha":826,"x_min":0,"x_max":0,"o":"m 753 0 l 753 583 l 461 583 l 461 194 l 364 194 l 364 778 l 753 778 l 753 972 l 72 972 l 72 0 z m 656 1042 l 656 1264 l 461 1264 l 461 1167 l 364 1167 l 364 1264 l 169 1264 l 169 1042 z "},"Ġ":{"ha":826,"x_min":0,"x_max":0,"o":"m 753 0 l 753 583 l 461 583 l 461 194 l 364 194 l 364 778 l 753 778 l 753 972 l 72 972 l 72 0 z m 510 1042 l 510 1236 l 315 1236 l 315 1042 z "},"ġ":{"ha":826,"x_min":0,"x_max":0,"o":"m 753 0 l 753 583 l 461 583 l 461 194 l 364 194 l 364 778 l 753 778 l 753 972 l 72 972 l 72 0 z m 510 1042 l 510 1236 l 315 1236 l 315 1042 z "},"Ģ":{"ha":826,"x_min":0,"x_max":0,"o":"m 753 0 l 753 583 l 461 583 l 461 194 l 364 194 l 364 778 l 753 778 l 753 972 l 72 972 l 72 0 z m 558 -347 l 558 -69 l 267 -69 l 267 -264 l 364 -264 l 364 -347 z "},"ģ":{"ha":826,"x_min":0,"x_max":0,"o":"m 753 0 l 753 583 l 461 583 l 461 194 l 364 194 l 364 778 l 753 778 l 753 972 l 72 972 l 72 0 z m 558 -347 l 558 -69 l 267 -69 l 267 -264 l 364 -264 l 364 -347 z "},"Ĥ":{"ha":826,"x_min":0,"x_max":0,"o":"m 753 0 l 753 972 l 461 972 l 461 583 l 364 583 l 364 972 l 72 972 l 72 0 l 364 0 l 364 389 l 461 389 l 461 0 z m 656 1042 l 656 1236 l 558 1236 l 558 1333 l 267 1333 l 267 1236 l 169 1236 l 169 1042 l 364 1042 l 364 1139 l 461 1139 l 461 1042 z "},"ĥ":{"ha":826,"x_min":0,"x_max":0,"o":"m 753 0 l 753 972 l 461 972 l 461 583 l 364 583 l 364 972 l 72 972 l 72 0 l 364 0 l 364 389 l 461 389 l 461 0 z m 656 1042 l 656 1236 l 558 1236 l 558 1333 l 267 1333 l 267 1236 l 169 1236 l 169 1042 l 364 1042 l 364 1139 l 461 1139 l 461 1042 z "},"Ħ":{"ha":1021,"x_min":0,"x_max":0,"o":"m 850 0 l 850 583 l 947 583 l 947 778 l 850 778 l 850 972 l 558 972 l 558 778 l 461 778 l 461 972 l 169 972 l 169 778 l 72 778 l 72 583 l 169 583 l 169 0 l 461 0 l 461 194 l 558 194 l 558 0 z m 558 389 l 461 389 l 461 583 l 558 583 z "},"ħ":{"ha":1021,"x_min":0,"x_max":0,"o":"m 850 0 l 850 583 l 947 583 l 947 778 l 850 778 l 850 972 l 558 972 l 558 778 l 461 778 l 461 972 l 169 972 l 169 778 l 72 778 l 72 583 l 169 583 l 169 0 l 461 0 l 461 194 l 558 194 l 558 0 z m 558 389 l 461 389 l 461 583 l 558 583 z "},"Ḣ":{"ha":826,"x_min":0,"x_max":0,"o":"m 753 0 l 753 972 l 461 972 l 461 583 l 364 583 l 364 972 l 72 972 l 72 0 l 364 0 l 364 389 l 461 389 l 461 0 z m 510 1042 l 510 1236 l 315 1236 l 315 1042 z "},"ḣ":{"ha":826,"x_min":0,"x_max":0,"o":"m 753 0 l 753 972 l 461 972 l 461 583 l 364 583 l 364 972 l 72 972 l 72 0 l 364 0 l 364 389 l 461 389 l 461 0 z m 510 1042 l 510 1236 l 315 1236 l 315 1042 z "},"Ì":{"ha":438,"x_min":0,"x_max":0,"o":"m 364 0 l 364 972 l 72 972 l 72 0 z m 315 1042 l 315 1236 l 218 1236 l 218 1333 l 24 1333 l 24 1139 l 121 1139 l 121 1042 z "},"ì":{"ha":438,"x_min":0,"x_max":0,"o":"m 364 0 l 364 972 l 72 972 l 72 0 z m 315 1042 l 315 1236 l 218 1236 l 218 1333 l 24 1333 l 24 1139 l 121 1139 l 121 1042 z "},"Í":{"ha":438,"x_min":0,"x_max":0,"o":"m 364 0 l 364 972 l 72 972 l 72 0 z m 413 1139 l 413 1333 l 218 1333 l 218 1236 l 121 1236 l 121 1042 l 315 1042 l 315 1139 z "},"í":{"ha":438,"x_min":0,"x_max":0,"o":"m 364 0 l 364 972 l 72 972 l 72 0 z m 413 1139 l 413 1333 l 218 1333 l 218 1236 l 121 1236 l 121 1042 l 315 1042 l 315 1139 z "},"Î":{"ha":438,"x_min":0,"x_max":0,"o":"m 364 0 l 364 972 l 72 972 l 72 0 z m 461 1042 l 461 1236 l 364 1236 l 364 1333 l 72 1333 l 72 1236 l -25 1236 l -25 1042 l 169 1042 l 169 1139 l 267 1139 l 267 1042 z "},"î":{"ha":438,"x_min":0,"x_max":0,"o":"m 364 0 l 364 972 l 72 972 l 72 0 z m 461 1042 l 461 1236 l 364 1236 l 364 1333 l 72 1333 l 72 1236 l -25 1236 l -25 1042 l 169 1042 l 169 1139 l 267 1139 l 267 1042 z "},"Ï":{"ha":438,"x_min":0,"x_max":0,"o":"m 364 0 l 364 972 l 72 972 l 72 0 z m 169 1042 l 169 1236 l -25 1236 l -25 1042 z m 461 1042 l 461 1236 l 267 1236 l 267 1042 z "},"ï":{"ha":438,"x_min":0,"x_max":0,"o":"m 364 0 l 364 972 l 72 972 l 72 0 z m 169 1042 l 169 1236 l -25 1236 l -25 1042 z m 461 1042 l 461 1236 l 267 1236 l 267 1042 z "},"Ĩ":{"ha":438,"x_min":0,"x_max":0,"o":"m 364 0 l 364 972 l 72 972 l 72 0 z m 510 1139 l 510 1333 l 315 1333 l 315 1236 l 218 1236 l 218 1333 l 24 1333 l 24 1236 l -74 1236 l -74 1042 l 121 1042 l 121 1139 l 218 1139 l 218 1042 l 413 1042 l 413 1139 z "},"ĩ":{"ha":438,"x_min":0,"x_max":0,"o":"m 364 0 l 364 972 l 72 972 l 72 0 z m 510 1139 l 510 1333 l 315 1333 l 315 1236 l 218 1236 l 218 1333 l 24 1333 l 24 1236 l -74 1236 l -74 1042 l 121 1042 l 121 1139 l 218 1139 l 218 1042 l 413 1042 l 413 1139 z "},"Ī":{"ha":438,"x_min":0,"x_max":0,"o":"m 364 0 l 364 972 l 72 972 l 72 0 z m 461 1042 l 461 1236 l -25 1236 l -25 1042 z "},"ī":{"ha":438,"x_min":0,"x_max":0,"o":"m 364 0 l 364 972 l 72 972 l 72 0 z m 461 1042 l 461 1236 l -25 1236 l -25 1042 z "},"Ĭ":{"ha":438,"x_min":0,"x_max":0,"o":"m 364 0 l 364 972 l 72 972 l 72 0 z m 461 1042 l 461 1264 l 267 1264 l 267 1167 l 169 1167 l 169 1264 l -25 1264 l -25 1042 z "},"ĭ":{"ha":438,"x_min":0,"x_max":0,"o":"m 364 0 l 364 972 l 72 972 l 72 0 z m 461 1042 l 461 1264 l 267 1264 l 267 1167 l 169 1167 l 169 1264 l -25 1264 l -25 1042 z "},"Į":{"ha":438,"x_min":0,"x_max":0,"o":"m 413 -347 l 413 -153 l 315 -153 l 315 0 l 364 0 l 364 972 l 72 972 l 72 0 l 121 0 l 121 -347 z "},"į":{"ha":438,"x_min":0,"x_max":0,"o":"m 413 -347 l 413 -153 l 315 -153 l 315 0 l 364 0 l 364 972 l 72 972 l 72 0 l 121 0 l 121 -347 z "},"İ":{"ha":438,"x_min":0,"x_max":0,"o":"m 364 0 l 364 972 l 72 972 l 72 0 z m 364 1042 l 364 1236 l 72 1236 l 72 1042 z "},"ı":{"ha":438,"x_min":0,"x_max":0,"o":"m 364 0 l 364 972 l 72 972 l 72 0 z "},"Ĵ":{"ha":826,"x_min":0,"x_max":0,"o":"m 753 0 l 753 972 l 461 972 l 461 194 l 364 194 l 364 389 l 72 389 l 72 0 z m 656 1042 l 656 1236 l 558 1236 l 558 1333 l 267 1333 l 267 1236 l 169 1236 l 169 1042 l 364 1042 l 364 1139 l 461 1139 l 461 1042 z "},"ĵ":{"ha":826,"x_min":0,"x_max":0,"o":"m 753 0 l 753 972 l 461 972 l 461 194 l 364 194 l 364 389 l 72 389 l 72 0 z m 656 1042 l 656 1236 l 558 1236 l 558 1333 l 267 1333 l 267 1236 l 169 1236 l 169 1042 l 364 1042 l 364 1139 l 461 1139 l 461 1042 z "},"ȷ":{"ha":826,"x_min":0,"x_max":0,"o":"m 753 0 l 753 972 l 461 972 l 461 194 l 364 194 l 364 389 l 72 389 l 72 0 z "},"Ķ":{"ha":826,"x_min":0,"x_max":0,"o":"m 753 0 l 753 486 l 558 486 l 558 583 l 753 583 l 753 972 l 461 972 l 461 681 l 364 681 l 364 972 l 72 972 l 72 0 l 364 0 l 364 292 l 461 292 l 461 0 z m 558 -347 l 558 -69 l 267 -69 l 267 -264 l 364 -264 l 364 -347 z "},"ķ":{"ha":826,"x_min":0,"x_max":0,"o":"m 753 0 l 753 486 l 558 486 l 558 583 l 753 583 l 753 972 l 461 972 l 461 681 l 364 681 l 364 972 l 72 972 l 72 0 l 364 0 l 364 292 l 461 292 l 461 0 z m 558 -347 l 558 -69 l 267 -69 l 267 -264 l 364 -264 l 364 -347 z "},"Ḱ":{"ha":826,"x_min":0,"x_max":0,"o":"m 753 0 l 753 486 l 558 486 l 558 583 l 753 583 l 753 972 l 461 972 l 461 681 l 364 681 l 364 972 l 72 972 l 72 0 l 364 0 l 364 292 l 461 292 l 461 0 z m 607 1139 l 607 1333 l 413 1333 l 413 1236 l 315 1236 l 315 1042 l 510 1042 l 510 1139 z "},"ḱ":{"ha":826,"x_min":0,"x_max":0,"o":"m 753 0 l 753 486 l 558 486 l 558 583 l 753 583 l 753 972 l 461 972 l 461 681 l 364 681 l 364 972 l 72 972 l 72 0 l 364 0 l 364 292 l 461 292 l 461 0 z m 607 1139 l 607 1333 l 413 1333 l 413 1236 l 315 1236 l 315 1042 l 510 1042 l 510 1139 z "},"ĸ":{"ha":826,"x_min":0,"x_max":0,"o":"m 753 0 l 753 486 l 558 486 l 558 583 l 753 583 l 753 972 l 461 972 l 461 681 l 364 681 l 364 972 l 72 972 l 72 0 l 364 0 l 364 292 l 461 292 l 461 0 z "},"Ł":{"ha":757,"x_min":0,"x_max":0,"o":"m 683 0 l 683 194 l 392 194 l 392 486 l 489 486 l 489 681 l 392 681 l 392 972 l 100 972 l 100 583 l 3 583 l 3 389 l 100 389 l 100 0 z "},"ł":{"ha":757,"x_min":0,"x_max":0,"o":"m 683 0 l 683 194 l 392 194 l 392 486 l 489 486 l 489 681 l 392 681 l 392 972 l 100 972 l 100 583 l 3 583 l 3 389 l 100 389 l 100 0 z "},"Ĺ":{"ha":729,"x_min":0,"x_max":0,"o":"m 656 0 l 656 194 l 364 194 l 364 972 l 72 972 l 72 0 z m 413 1139 l 413 1333 l 218 1333 l 218 1236 l 121 1236 l 121 1042 l 315 1042 l 315 1139 z "},"ĺ":{"ha":729,"x_min":0,"x_max":0,"o":"m 656 0 l 656 194 l 364 194 l 364 972 l 72 972 l 72 0 z m 413 1139 l 413 1333 l 218 1333 l 218 1236 l 121 1236 l 121 1042 l 315 1042 l 315 1139 z "},"Ļ":{"ha":729,"x_min":0,"x_max":0,"o":"m 656 0 l 656 194 l 364 194 l 364 972 l 72 972 l 72 0 z m 510 -347 l 510 -69 l 218 -69 l 218 -264 l 315 -264 l 315 -347 z "},"ļ":{"ha":729,"x_min":0,"x_max":0,"o":"m 656 0 l 656 194 l 364 194 l 364 972 l 72 972 l 72 0 z m 510 -347 l 510 -69 l 218 -69 l 218 -264 l 315 -264 l 315 -347 z "},"Ľ":{"ha":826,"x_min":0,"x_max":0,"o":"m 656 0 l 656 194 l 364 194 l 364 972 l 72 972 l 72 0 z m 753 583 l 753 972 l 461 972 l 461 583 z "},"ľ":{"ha":826,"x_min":0,"x_max":0,"o":"m 656 0 l 656 194 l 364 194 l 364 972 l 72 972 l 72 0 z m 753 583 l 753 972 l 461 972 l 461 583 z "},"Ŀ":{"ha":826,"x_min":0,"x_max":0,"o":"m 656 0 l 656 194 l 364 194 l 364 972 l 72 972 l 72 0 z m 753 389 l 753 681 l 461 681 l 461 389 z "},"ŀ":{"ha":826,"x_min":0,"x_max":0,"o":"m 656 0 l 656 194 l 364 194 l 364 972 l 72 972 l 72 0 z m 753 389 l 753 681 l 461 681 l 461 389 z "},"Ṁ":{"ha":1118,"x_min":0,"x_max":0,"o":"m 1044 0 l 1044 972 l 753 972 l 753 778 l 656 778 l 656 583 l 461 583 l 461 778 l 364 778 l 364 972 l 72 972 l 72 0 l 364 0 l 364 389 l 461 389 l 461 194 l 656 194 l 656 389 l 753 389 l 753 0 z m 656 1042 l 656 1236 l 461 1236 l 461 1042 z "},"ṁ":{"ha":1118,"x_min":0,"x_max":0,"o":"m 1044 0 l 1044 972 l 753 972 l 753 778 l 656 778 l 656 583 l 461 583 l 461 778 l 364 778 l 364 972 l 72 972 l 72 0 l 364 0 l 364 389 l 461 389 l 461 194 l 656 194 l 656 389 l 753 389 l 753 0 z m 656 1042 l 656 1236 l 461 1236 l 461 1042 z "},"Ñ":{"ha":924,"x_min":0,"x_max":0,"o":"m 850 0 l 850 972 l 558 972 l 558 583 l 461 583 l 461 778 l 364 778 l 364 972 l 72 972 l 72 0 l 364 0 l 364 389 l 461 389 l 461 194 l 558 194 l 558 0 z m 753 1139 l 753 1333 l 558 1333 l 558 1236 l 461 1236 l 461 1333 l 267 1333 l 267 1236 l 169 1236 l 169 1042 l 364 1042 l 364 1139 l 461 1139 l 461 1042 l 656 1042 l 656 1139 z "},"ñ":{"ha":924,"x_min":0,"x_max":0,"o":"m 850 0 l 850 972 l 558 972 l 558 583 l 461 583 l 461 778 l 364 778 l 364 972 l 72 972 l 72 0 l 364 0 l 364 389 l 461 389 l 461 194 l 558 194 l 558 0 z m 753 1139 l 753 1333 l 558 1333 l 558 1236 l 461 1236 l 461 1333 l 267 1333 l 267 1236 l 169 1236 l 169 1042 l 364 1042 l 364 1139 l 461 1139 l 461 1042 l 656 1042 l 656 1139 z "},"Ń":{"ha":924,"x_min":0,"x_max":0,"o":"m 850 0 l 850 972 l 558 972 l 558 583 l 461 583 l 461 778 l 364 778 l 364 972 l 72 972 l 72 0 l 364 0 l 364 389 l 461 389 l 461 194 l 558 194 l 558 0 z m 656 1139 l 656 1333 l 461 1333 l 461 1236 l 364 1236 l 364 1042 l 558 1042 l 558 1139 z "},"ń":{"ha":924,"x_min":0,"x_max":0,"o":"m 850 0 l 850 972 l 558 972 l 558 583 l 461 583 l 461 778 l 364 778 l 364 972 l 72 972 l 72 0 l 364 0 l 364 389 l 461 389 l 461 194 l 558 194 l 558 0 z m 656 1139 l 656 1333 l 461 1333 l 461 1236 l 364 1236 l 364 1042 l 558 1042 l 558 1139 z "},"Ņ":{"ha":924,"x_min":0,"x_max":0,"o":"m 850 0 l 850 972 l 558 972 l 558 583 l 461 583 l 461 778 l 364 778 l 364 972 l 72 972 l 72 0 l 364 0 l 364 389 l 461 389 l 461 194 l 558 194 l 558 0 z m 607 -347 l 607 -69 l 315 -69 l 315 -264 l 413 -264 l 413 -347 z "},"ņ":{"ha":924,"x_min":0,"x_max":0,"o":"m 850 0 l 850 972 l 558 972 l 558 583 l 461 583 l 461 778 l 364 778 l 364 972 l 72 972 l 72 0 l 364 0 l 364 389 l 461 389 l 461 194 l 558 194 l 558 0 z m 607 -347 l 607 -69 l 315 -69 l 315 -264 l 413 -264 l 413 -347 z "},"Ň":{"ha":924,"x_min":0,"x_max":0,"o":"m 850 0 l 850 972 l 558 972 l 558 583 l 461 583 l 461 778 l 364 778 l 364 972 l 72 972 l 72 0 l 364 0 l 364 389 l 461 389 l 461 194 l 558 194 l 558 0 z m 607 1042 l 607 1139 l 704 1139 l 704 1333 l 510 1333 l 510 1236 l 413 1236 l 413 1333 l 218 1333 l 218 1139 l 315 1139 l 315 1042 z "},"ň":{"ha":924,"x_min":0,"x_max":0,"o":"m 850 0 l 850 972 l 558 972 l 558 583 l 461 583 l 461 778 l 364 778 l 364 972 l 72 972 l 72 0 l 364 0 l 364 389 l 461 389 l 461 194 l 558 194 l 558 0 z m 607 1042 l 607 1139 l 704 1139 l 704 1333 l 510 1333 l 510 1236 l 413 1236 l 413 1333 l 218 1333 l 218 1139 l 315 1139 l 315 1042 z "},"Ŋ":{"ha":924,"x_min":0,"x_max":0,"o":"m 753 -194 l 753 -97 l 850 -97 l 850 972 l 558 972 l 558 583 l 461 583 l 461 778 l 364 778 l 364 972 l 72 972 l 72 0 l 364 0 l 364 389 l 461 389 l 461 194 l 558 194 l 558 0 l 461 0 l 461 -194 z "},"ŋ":{"ha":924,"x_min":0,"x_max":0,"o":"m 753 -194 l 753 -97 l 850 -97 l 850 972 l 558 972 l 558 583 l 461 583 l 461 778 l 364 778 l 364 972 l 72 972 l 72 0 l 364 0 l 364 389 l 461 389 l 461 194 l 558 194 l 558 0 l 461 0 l 461 -194 z "},"Ó":{"ha":826,"x_min":0,"x_max":0,"o":"m 753 0 l 753 972 l 72 972 l 72 0 z m 461 194 l 364 194 l 364 778 l 461 778 z m 607 1139 l 607 1333 l 413 1333 l 413 1236 l 315 1236 l 315 1042 l 510 1042 l 510 1139 z "},"ó":{"ha":826,"x_min":0,"x_max":0,"o":"m 753 0 l 753 972 l 72 972 l 72 0 z m 461 194 l 364 194 l 364 778 l 461 778 z m 607 1139 l 607 1333 l 413 1333 l 413 1236 l 315 1236 l 315 1042 l 510 1042 l 510 1139 z "},"Ò":{"ha":826,"x_min":0,"x_max":0,"o":"m 753 0 l 753 972 l 72 972 l 72 0 z m 461 194 l 364 194 l 364 778 l 461 778 z m 510 1042 l 510 1236 l 413 1236 l 413 1333 l 218 1333 l 218 1139 l 315 1139 l 315 1042 z "},"ò":{"ha":826,"x_min":0,"x_max":0,"o":"m 753 0 l 753 972 l 72 972 l 72 0 z m 461 194 l 364 194 l 364 778 l 461 778 z m 510 1042 l 510 1236 l 413 1236 l 413 1333 l 218 1333 l 218 1139 l 315 1139 l 315 1042 z "},"Ô":{"ha":826,"x_min":0,"x_max":0,"o":"m 753 0 l 753 972 l 72 972 l 72 0 z m 461 194 l 364 194 l 364 778 l 461 778 z m 656 1042 l 656 1236 l 558 1236 l 558 1333 l 267 1333 l 267 1236 l 169 1236 l 169 1042 l 364 1042 l 364 1139 l 461 1139 l 461 1042 z "},"ô":{"ha":826,"x_min":0,"x_max":0,"o":"m 753 0 l 753 972 l 72 972 l 72 0 z m 461 194 l 364 194 l 364 778 l 461 778 z m 656 1042 l 656 1236 l 558 1236 l 558 1333 l 267 1333 l 267 1236 l 169 1236 l 169 1042 l 364 1042 l 364 1139 l 461 1139 l 461 1042 z "},"Õ":{"ha":826,"x_min":0,"x_max":0,"o":"m 753 0 l 753 972 l 72 972 l 72 0 z m 461 194 l 364 194 l 364 778 l 461 778 z m 704 1139 l 704 1333 l 510 1333 l 510 1236 l 413 1236 l 413 1333 l 218 1333 l 218 1236 l 121 1236 l 121 1042 l 315 1042 l 315 1139 l 413 1139 l 413 1042 l 607 1042 l 607 1139 z "},"õ":{"ha":826,"x_min":0,"x_max":0,"o":"m 753 0 l 753 972 l 72 972 l 72 0 z m 461 194 l 364 194 l 364 778 l 461 778 z m 704 1139 l 704 1333 l 510 1333 l 510 1236 l 413 1236 l 413 1333 l 218 1333 l 218 1236 l 121 1236 l 121 1042 l 315 1042 l 315 1139 l 413 1139 l 413 1042 l 607 1042 l 607 1139 z "},"Ö":{"ha":826,"x_min":0,"x_max":0,"o":"m 753 0 l 753 972 l 72 972 l 72 0 z m 461 194 l 364 194 l 364 778 l 461 778 z m 364 1042 l 364 1236 l 169 1236 l 169 1042 z m 656 1042 l 656 1236 l 461 1236 l 461 1042 z "},"ö":{"ha":826,"x_min":0,"x_max":0,"o":"m 753 0 l 753 972 l 72 972 l 72 0 z m 461 194 l 364 194 l 364 778 l 461 778 z m 364 1042 l 364 1236 l 169 1236 l 169 1042 z m 656 1042 l 656 1236 l 461 1236 l 461 1042 z "},"Ō":{"ha":826,"x_min":0,"x_max":0,"o":"m 753 0 l 753 972 l 72 972 l 72 0 z m 461 194 l 364 194 l 364 778 l 461 778 z m 656 1042 l 656 1236 l 169 1236 l 169 1042 z "},"ō":{"ha":826,"x_min":0,"x_max":0,"o":"m 753 0 l 753 972 l 72 972 l 72 0 z m 461 194 l 364 194 l 364 778 l 461 778 z m 656 1042 l 656 1236 l 169 1236 l 169 1042 z "},"Ŏ":{"ha":826,"x_min":0,"x_max":0,"o":"m 753 0 l 753 972 l 72 972 l 72 0 z m 461 194 l 364 194 l 364 778 l 461 778 z m 656 1042 l 656 1264 l 461 1264 l 461 1167 l 364 1167 l 364 1264 l 169 1264 l 169 1042 z "},"ŏ":{"ha":826,"x_min":0,"x_max":0,"o":"m 753 0 l 753 972 l 72 972 l 72 0 z m 461 194 l 364 194 l 364 778 l 461 778 z m 656 1042 l 656 1264 l 461 1264 l 461 1167 l 364 1167 l 364 1264 l 169 1264 l 169 1042 z "},"Ő":{"ha":826,"x_min":0,"x_max":0,"o":"m 753 0 l 753 972 l 72 972 l 72 0 z m 461 194 l 364 194 l 364 778 l 461 778 z m 364 972 l 364 1236 l 169 1236 l 169 972 z m 656 972 l 656 1236 l 461 1236 l 461 972 z "},"ő":{"ha":826,"x_min":0,"x_max":0,"o":"m 753 0 l 753 972 l 72 972 l 72 0 z m 461 194 l 364 194 l 364 778 l 461 778 z m 364 972 l 364 1236 l 169 1236 l 169 972 z m 656 972 l 656 1236 l 461 1236 l 461 972 z "},"Ø":{"ha":826,"x_min":0,"x_max":0,"o":"m 753 0 l 753 972 l 656 972 l 656 1139 l 461 1139 l 461 972 l 72 972 l 72 0 l 169 0 l 169 -167 l 364 -167 l 364 0 z m 461 194 l 364 194 l 364 389 l 461 389 z m 461 583 l 364 583 l 364 778 l 461 778 z "},"ø":{"ha":826,"x_min":0,"x_max":0,"o":"m 753 0 l 753 972 l 656 972 l 656 1139 l 461 1139 l 461 972 l 72 972 l 72 0 l 169 0 l 169 -167 l 364 -167 l 364 0 z m 461 194 l 364 194 l 364 389 l 461 389 z m 461 583 l 364 583 l 364 778 l 461 778 z "},"Ǿ":{"ha":826,"x_min":0,"x_max":0,"o":"m 753 0 l 753 972 l 656 972 l 656 1139 l 461 1139 l 461 972 l 72 972 l 72 0 l 169 0 l 169 -167 l 364 -167 l 364 0 z m 461 194 l 364 194 l 364 389 l 461 389 z m 461 583 l 364 583 l 364 778 l 461 778 z m 461 1139 l 461 1333 l 267 1333 l 267 1236 l 169 1236 l 169 1042 l 364 1042 l 364 1139 z "},"ǿ":{"ha":826,"x_min":0,"x_max":0,"o":"m 753 0 l 753 972 l 656 972 l 656 1139 l 461 1139 l 461 972 l 72 972 l 72 0 l 169 0 l 169 -167 l 364 -167 l 364 0 z m 461 194 l 364 194 l 364 389 l 461 389 z m 461 583 l 364 583 l 364 778 l 461 778 z m 461 1139 l 461 1333 l 267 1333 l 267 1236 l 169 1236 l 169 1042 l 364 1042 l 364 1139 z "},"Œ":{"ha":1215,"x_min":0,"x_max":0,"o":"m 1142 0 l 1142 194 l 753 194 l 753 389 l 1044 389 l 1044 583 l 753 583 l 753 778 l 1142 778 l 1142 972 l 72 972 l 72 0 z m 461 194 l 364 194 l 364 778 l 461 778 z "},"œ":{"ha":1215,"x_min":0,"x_max":0,"o":"m 1142 0 l 1142 194 l 753 194 l 753 389 l 1044 389 l 1044 583 l 753 583 l 753 778 l 1142 778 l 1142 972 l 72 972 l 72 0 z m 461 194 l 364 194 l 364 778 l 461 778 z "},"Ṗ":{"ha":826,"x_min":0,"x_max":0,"o":"m 364 0 l 364 389 l 753 389 l 753 972 l 72 972 l 72 0 z m 461 583 l 364 583 l 364 778 l 461 778 z m 510 1042 l 510 1236 l 315 1236 l 315 1042 z "},"ṗ":{"ha":826,"x_min":0,"x_max":0,"o":"m 364 0 l 364 389 l 753 389 l 753 972 l 72 972 l 72 0 z m 461 583 l 364 583 l 364 778 l 461 778 z m 510 1042 l 510 1236 l 315 1236 l 315 1042 z "},"Þ":{"ha":826,"x_min":0,"x_max":0,"o":"m 753 194 l 753 778 l 364 778 l 364 972 l 72 972 l 72 0 l 364 0 l 364 194 z m 461 389 l 364 389 l 364 583 l 461 583 z "},"þ":{"ha":826,"x_min":0,"x_max":0,"o":"m 753 194 l 753 778 l 364 778 l 364 972 l 72 972 l 72 0 l 364 0 l 364 194 z m 461 389 l 364 389 l 364 583 l 461 583 z "},"Ŕ":{"ha":826,"x_min":0,"x_max":0,"o":"m 753 0 l 753 486 l 656 486 l 656 583 l 753 583 l 753 972 l 72 972 l 72 0 l 364 0 l 364 389 l 461 389 l 461 0 z m 461 583 l 364 583 l 364 778 l 461 778 z m 607 1139 l 607 1333 l 413 1333 l 413 1236 l 315 1236 l 315 1042 l 510 1042 l 510 1139 z "},"ŕ":{"ha":826,"x_min":0,"x_max":0,"o":"m 753 0 l 753 486 l 656 486 l 656 583 l 753 583 l 753 972 l 72 972 l 72 0 l 364 0 l 364 389 l 461 389 l 461 0 z m 461 583 l 364 583 l 364 778 l 461 778 z m 607 1139 l 607 1333 l 413 1333 l 413 1236 l 315 1236 l 315 1042 l 510 1042 l 510 1139 z "},"Ŗ":{"ha":826,"x_min":0,"x_max":0,"o":"m 753 0 l 753 486 l 656 486 l 656 583 l 753 583 l 753 972 l 72 972 l 72 0 l 364 0 l 364 389 l 461 389 l 461 0 z m 461 583 l 364 583 l 364 778 l 461 778 z m 558 -347 l 558 -69 l 267 -69 l 267 -264 l 364 -264 l 364 -347 z "},"ŗ":{"ha":826,"x_min":0,"x_max":0,"o":"m 753 0 l 753 486 l 656 486 l 656 583 l 753 583 l 753 972 l 72 972 l 72 0 l 364 0 l 364 389 l 461 389 l 461 0 z m 461 583 l 364 583 l 364 778 l 461 778 z m 558 -347 l 558 -69 l 267 -69 l 267 -264 l 364 -264 l 364 -347 z "},"Ř":{"ha":826,"x_min":0,"x_max":0,"o":"m 753 0 l 753 486 l 656 486 l 656 583 l 753 583 l 753 972 l 72 972 l 72 0 l 364 0 l 364 389 l 461 389 l 461 0 z m 461 583 l 364 583 l 364 778 l 461 778 z m 558 1042 l 558 1139 l 656 1139 l 656 1333 l 461 1333 l 461 1236 l 364 1236 l 364 1333 l 169 1333 l 169 1139 l 267 1139 l 267 1042 z "},"ř":{"ha":826,"x_min":0,"x_max":0,"o":"m 753 0 l 753 486 l 656 486 l 656 583 l 753 583 l 753 972 l 72 972 l 72 0 l 364 0 l 364 389 l 461 389 l 461 0 z m 461 583 l 364 583 l 364 778 l 461 778 z m 558 1042 l 558 1139 l 656 1139 l 656 1333 l 461 1333 l 461 1236 l 364 1236 l 364 1333 l 169 1333 l 169 1139 l 267 1139 l 267 1042 z "},"Ś":{"ha":826,"x_min":0,"x_max":0,"o":"m 753 0 l 753 583 l 364 583 l 364 778 l 753 778 l 753 972 l 72 972 l 72 389 l 461 389 l 461 194 l 72 194 l 72 0 z m 607 1139 l 607 1333 l 413 1333 l 413 1236 l 315 1236 l 315 1042 l 510 1042 l 510 1139 z "},"ś":{"ha":826,"x_min":0,"x_max":0,"o":"m 753 0 l 753 583 l 364 583 l 364 778 l 753 778 l 753 972 l 72 972 l 72 389 l 461 389 l 461 194 l 72 194 l 72 0 z m 607 1139 l 607 1333 l 413 1333 l 413 1236 l 315 1236 l 315 1042 l 510 1042 l 510 1139 z "},"Ŝ":{"ha":826,"x_min":0,"x_max":0,"o":"m 753 0 l 753 583 l 364 583 l 364 778 l 753 778 l 753 972 l 72 972 l 72 389 l 461 389 l 461 194 l 72 194 l 72 0 z m 656 1042 l 656 1236 l 558 1236 l 558 1333 l 267 1333 l 267 1236 l 169 1236 l 169 1042 l 364 1042 l 364 1139 l 461 1139 l 461 1042 z "},"ŝ":{"ha":826,"x_min":0,"x_max":0,"o":"m 753 0 l 753 583 l 364 583 l 364 778 l 753 778 l 753 972 l 72 972 l 72 389 l 461 389 l 461 194 l 72 194 l 72 0 z m 656 1042 l 656 1236 l 558 1236 l 558 1333 l 267 1333 l 267 1236 l 169 1236 l 169 1042 l 364 1042 l 364 1139 l 461 1139 l 461 1042 z "},"Ş":{"ha":826,"x_min":0,"x_max":0,"o":"m 558 -347 l 558 0 l 753 0 l 753 583 l 364 583 l 364 778 l 753 778 l 753 972 l 72 972 l 72 389 l 461 389 l 461 194 l 72 194 l 72 0 l 364 0 l 364 -153 l 267 -153 l 267 -347 z "},"ş":{"ha":826,"x_min":0,"x_max":0,"o":"m 558 -347 l 558 0 l 753 0 l 753 583 l 364 583 l 364 778 l 753 778 l 753 972 l 72 972 l 72 389 l 461 389 l 461 194 l 72 194 l 72 0 l 364 0 l 364 -153 l 267 -153 l 267 -347 z "},"Ș":{"ha":826,"x_min":0,"x_max":0,"o":"m 753 0 l 753 583 l 364 583 l 364 778 l 753 778 l 753 972 l 72 972 l 72 389 l 461 389 l 461 194 l 72 194 l 72 0 z m 558 -347 l 558 -69 l 267 -69 l 267 -264 l 364 -264 l 364 -347 z "},"ș":{"ha":826,"x_min":0,"x_max":0,"o":"m 753 0 l 753 583 l 364 583 l 364 778 l 753 778 l 753 972 l 72 972 l 72 389 l 461 389 l 461 194 l 72 194 l 72 0 z m 558 -347 l 558 -69 l 267 -69 l 267 -264 l 364 -264 l 364 -347 z "},"Š":{"ha":826,"x_min":0,"x_max":0,"o":"m 753 0 l 753 583 l 364 583 l 364 778 l 753 778 l 753 972 l 72 972 l 72 389 l 461 389 l 461 194 l 72 194 l 72 0 z m 558 1042 l 558 1139 l 656 1139 l 656 1333 l 461 1333 l 461 1236 l 364 1236 l 364 1333 l 169 1333 l 169 1139 l 267 1139 l 267 1042 z "},"š":{"ha":826,"x_min":0,"x_max":0,"o":"m 753 0 l 753 583 l 364 583 l 364 778 l 753 778 l 753 972 l 72 972 l 72 389 l 461 389 l 461 194 l 72 194 l 72 0 z m 558 1042 l 558 1139 l 656 1139 l 656 1333 l 461 1333 l 461 1236 l 364 1236 l 364 1333 l 169 1333 l 169 1139 l 267 1139 l 267 1042 z "},"Ṡ":{"ha":826,"x_min":0,"x_max":0,"o":"m 753 0 l 753 583 l 364 583 l 364 778 l 753 778 l 753 972 l 72 972 l 72 389 l 461 389 l 461 194 l 72 194 l 72 0 z m 510 1042 l 510 1236 l 315 1236 l 315 1042 z "},"ṡ":{"ha":826,"x_min":0,"x_max":0,"o":"m 753 0 l 753 583 l 364 583 l 364 778 l 753 778 l 753 972 l 72 972 l 72 389 l 461 389 l 461 194 l 72 194 l 72 0 z m 510 1042 l 510 1236 l 315 1236 l 315 1042 z "},"Ṫ":{"ha":826,"x_min":0,"x_max":0,"o":"m 558 0 l 558 778 l 753 778 l 753 972 l 72 972 l 72 778 l 267 778 l 267 0 z m 510 1042 l 510 1236 l 315 1236 l 315 1042 z "},"ṫ":{"ha":826,"x_min":0,"x_max":0,"o":"m 558 0 l 558 778 l 753 778 l 753 972 l 72 972 l 72 778 l 267 778 l 267 0 z m 510 1042 l 510 1236 l 315 1236 l 315 1042 z "},"Ţ":{"ha":826,"x_min":0,"x_max":0,"o":"m 558 0 l 558 778 l 753 778 l 753 972 l 72 972 l 72 778 l 267 778 l 267 0 z m 558 -347 l 558 -69 l 267 -69 l 267 -264 l 364 -264 l 364 -347 z "},"ţ":{"ha":826,"x_min":0,"x_max":0,"o":"m 558 0 l 558 778 l 753 778 l 753 972 l 72 972 l 72 778 l 267 778 l 267 0 z m 558 -347 l 558 -69 l 267 -69 l 267 -264 l 364 -264 l 364 -347 z "},"Ț":{"ha":826,"x_min":0,"x_max":0,"o":"m 558 0 l 558 778 l 753 778 l 753 972 l 72 972 l 72 778 l 267 778 l 267 0 z m 558 -347 l 558 -69 l 267 -69 l 267 -264 l 364 -264 l 364 -347 z "},"ț":{"ha":826,"x_min":0,"x_max":0,"o":"m 558 0 l 558 778 l 753 778 l 753 972 l 72 972 l 72 778 l 267 778 l 267 0 z m 558 -347 l 558 -69 l 267 -69 l 267 -264 l 364 -264 l 364 -347 z "},"Ť":{"ha":826,"x_min":0,"x_max":0,"o":"m 558 0 l 558 778 l 753 778 l 753 972 l 72 972 l 72 778 l 267 778 l 267 0 z m 558 1042 l 558 1139 l 656 1139 l 656 1333 l 461 1333 l 461 1236 l 364 1236 l 364 1333 l 169 1333 l 169 1139 l 267 1139 l 267 1042 z "},"ť":{"ha":826,"x_min":0,"x_max":0,"o":"m 558 0 l 558 778 l 753 778 l 753 972 l 72 972 l 72 778 l 267 778 l 267 0 z m 558 1042 l 558 1139 l 656 1139 l 656 1333 l 461 1333 l 461 1236 l 364 1236 l 364 1333 l 169 1333 l 169 1139 l 267 1139 l 267 1042 z "},"Ŧ":{"ha":826,"x_min":0,"x_max":0,"o":"m 558 0 l 558 389 l 753 389 l 753 583 l 558 583 l 558 778 l 753 778 l 753 972 l 72 972 l 72 778 l 267 778 l 267 583 l 72 583 l 72 389 l 267 389 l 267 0 z "},"ŧ":{"ha":826,"x_min":0,"x_max":0,"o":"m 558 0 l 558 389 l 753 389 l 753 583 l 558 583 l 558 778 l 753 778 l 753 972 l 72 972 l 72 778 l 267 778 l 267 583 l 72 583 l 72 389 l 267 389 l 267 0 z "},"Ù":{"ha":826,"x_min":0,"x_max":0,"o":"m 753 0 l 753 972 l 461 972 l 461 194 l 364 194 l 364 972 l 72 972 l 72 0 z m 510 1042 l 510 1236 l 413 1236 l 413 1333 l 218 1333 l 218 1139 l 315 1139 l 315 1042 z "},"ù":{"ha":826,"x_min":0,"x_max":0,"o":"m 753 0 l 753 972 l 461 972 l 461 194 l 364 194 l 364 972 l 72 972 l 72 0 z m 510 1042 l 510 1236 l 413 1236 l 413 1333 l 218 1333 l 218 1139 l 315 1139 l 315 1042 z "},"Ú":{"ha":826,"x_min":0,"x_max":0,"o":"m 753 0 l 753 972 l 461 972 l 461 194 l 364 194 l 364 972 l 72 972 l 72 0 z m 607 1139 l 607 1333 l 413 1333 l 413 1236 l 315 1236 l 315 1042 l 510 1042 l 510 1139 z "},"ú":{"ha":826,"x_min":0,"x_max":0,"o":"m 753 0 l 753 972 l 461 972 l 461 194 l 364 194 l 364 972 l 72 972 l 72 0 z m 607 1139 l 607 1333 l 413 1333 l 413 1236 l 315 1236 l 315 1042 l 510 1042 l 510 1139 z "},"Û":{"ha":826,"x_min":0,"x_max":0,"o":"m 753 0 l 753 972 l 461 972 l 461 194 l 364 194 l 364 972 l 72 972 l 72 0 z m 656 1042 l 656 1236 l 558 1236 l 558 1333 l 267 1333 l 267 1236 l 169 1236 l 169 1042 l 364 1042 l 364 1139 l 461 1139 l 461 1042 z "},"û":{"ha":826,"x_min":0,"x_max":0,"o":"m 753 0 l 753 972 l 461 972 l 461 194 l 364 194 l 364 972 l 72 972 l 72 0 z m 656 1042 l 656 1236 l 558 1236 l 558 1333 l 267 1333 l 267 1236 l 169 1236 l 169 1042 l 364 1042 l 364 1139 l 461 1139 l 461 1042 z "},"Ü":{"ha":826,"x_min":0,"x_max":0,"o":"m 753 0 l 753 972 l 461 972 l 461 194 l 364 194 l 364 972 l 72 972 l 72 0 z m 364 1042 l 364 1236 l 169 1236 l 169 1042 z m 656 1042 l 656 1236 l 461 1236 l 461 1042 z "},"ü":{"ha":826,"x_min":0,"x_max":0,"o":"m 753 0 l 753 972 l 461 972 l 461 194 l 364 194 l 364 972 l 72 972 l 72 0 z m 364 1042 l 364 1236 l 169 1236 l 169 1042 z m 656 1042 l 656 1236 l 461 1236 l 461 1042 z "},"Ũ":{"ha":826,"x_min":0,"x_max":0,"o":"m 753 0 l 753 972 l 461 972 l 461 194 l 364 194 l 364 972 l 72 972 l 72 0 z m 704 1139 l 704 1333 l 510 1333 l 510 1236 l 413 1236 l 413 1333 l 218 1333 l 218 1236 l 121 1236 l 121 1042 l 315 1042 l 315 1139 l 413 1139 l 413 1042 l 607 1042 l 607 1139 z "},"ũ":{"ha":826,"x_min":0,"x_max":0,"o":"m 753 0 l 753 972 l 461 972 l 461 194 l 364 194 l 364 972 l 72 972 l 72 0 z m 704 1139 l 704 1333 l 510 1333 l 510 1236 l 413 1236 l 413 1333 l 218 1333 l 218 1236 l 121 1236 l 121 1042 l 315 1042 l 315 1139 l 413 1139 l 413 1042 l 607 1042 l 607 1139 z "},"Ū":{"ha":826,"x_min":0,"x_max":0,"o":"m 753 0 l 753 972 l 461 972 l 461 194 l 364 194 l 364 972 l 72 972 l 72 0 z m 656 1042 l 656 1236 l 169 1236 l 169 1042 z "},"ū":{"ha":826,"x_min":0,"x_max":0,"o":"m 753 0 l 753 972 l 461 972 l 461 194 l 364 194 l 364 972 l 72 972 l 72 0 z m 656 1042 l 656 1236 l 169 1236 l 169 1042 z "},"Ŭ":{"ha":826,"x_min":0,"x_max":0,"o":"m 753 0 l 753 972 l 461 972 l 461 194 l 364 194 l 364 972 l 72 972 l 72 0 z m 656 1042 l 656 1264 l 461 1264 l 461 1167 l 364 1167 l 364 1264 l 169 1264 l 169 1042 z "},"ŭ":{"ha":826,"x_min":0,"x_max":0,"o":"m 753 0 l 753 972 l 461 972 l 461 194 l 364 194 l 364 972 l 72 972 l 72 0 z m 656 1042 l 656 1264 l 461 1264 l 461 1167 l 364 1167 l 364 1264 l 169 1264 l 169 1042 z "},"Ů":{"ha":826,"x_min":0,"x_max":0,"o":"m 753 0 l 753 972 l 558 972 l 558 1069 l 656 1069 l 656 1278 l 558 1278 l 558 1375 l 267 1375 l 267 1278 l 169 1278 l 169 1069 l 267 1069 l 267 972 l 72 972 l 72 0 z m 461 194 l 364 194 l 364 972 l 461 972 z m 461 1125 l 364 1125 l 364 1222 l 461 1222 z "},"ů":{"ha":826,"x_min":0,"x_max":0,"o":"m 753 0 l 753 972 l 558 972 l 558 1069 l 656 1069 l 656 1278 l 558 1278 l 558 1375 l 267 1375 l 267 1278 l 169 1278 l 169 1069 l 267 1069 l 267 972 l 72 972 l 72 0 z m 461 194 l 364 194 l 364 972 l 461 972 z m 461 1125 l 364 1125 l 364 1222 l 461 1222 z "},"Ű":{"ha":826,"x_min":0,"x_max":0,"o":"m 753 0 l 753 972 l 461 972 l 461 194 l 364 194 l 364 972 l 72 972 l 72 0 z m 364 972 l 364 1236 l 169 1236 l 169 972 z m 656 972 l 656 1236 l 461 1236 l 461 972 z "},"ű":{"ha":826,"x_min":0,"x_max":0,"o":"m 753 0 l 753 972 l 461 972 l 461 194 l 364 194 l 364 972 l 72 972 l 72 0 z m 364 972 l 364 1236 l 169 1236 l 169 972 z m 656 972 l 656 1236 l 461 1236 l 461 972 z "},"Ų":{"ha":826,"x_min":0,"x_max":0,"o":"m 607 -347 l 607 -153 l 510 -153 l 510 0 l 753 0 l 753 972 l 461 972 l 461 194 l 364 194 l 364 972 l 72 972 l 72 0 l 315 0 l 315 -347 z "},"ų":{"ha":826,"x_min":0,"x_max":0,"o":"m 607 -347 l 607 -153 l 510 -153 l 510 0 l 753 0 l 753 972 l 461 972 l 461 194 l 364 194 l 364 972 l 72 972 l 72 0 l 315 0 l 315 -347 z "},"Ẁ":{"ha":1118,"x_min":0,"x_max":0,"o":"m 947 0 l 947 194 l 1044 194 l 1044 972 l 753 972 l 753 486 l 656 486 l 656 681 l 461 681 l 461 486 l 364 486 l 364 972 l 72 972 l 72 194 l 169 194 l 169 0 l 461 0 l 461 292 l 656 292 l 656 0 z m 656 1042 l 656 1236 l 558 1236 l 558 1333 l 364 1333 l 364 1139 l 461 1139 l 461 1042 z "},"ẁ":{"ha":1118,"x_min":0,"x_max":0,"o":"m 947 0 l 947 194 l 1044 194 l 1044 972 l 753 972 l 753 486 l 656 486 l 656 681 l 461 681 l 461 486 l 364 486 l 364 972 l 72 972 l 72 194 l 169 194 l 169 0 l 461 0 l 461 292 l 656 292 l 656 0 z m 656 1042 l 656 1236 l 558 1236 l 558 1333 l 364 1333 l 364 1139 l 461 1139 l 461 1042 z "},"Ẃ":{"ha":1118,"x_min":0,"x_max":0,"o":"m 947 0 l 947 194 l 1044 194 l 1044 972 l 753 972 l 753 486 l 656 486 l 656 681 l 461 681 l 461 486 l 364 486 l 364 972 l 72 972 l 72 194 l 169 194 l 169 0 l 461 0 l 461 292 l 656 292 l 656 0 z m 753 1139 l 753 1333 l 558 1333 l 558 1236 l 461 1236 l 461 1042 l 656 1042 l 656 1139 z "},"ẃ":{"ha":1118,"x_min":0,"x_max":0,"o":"m 947 0 l 947 194 l 1044 194 l 1044 972 l 753 972 l 753 486 l 656 486 l 656 681 l 461 681 l 461 486 l 364 486 l 364 972 l 72 972 l 72 194 l 169 194 l 169 0 l 461 0 l 461 292 l 656 292 l 656 0 z m 753 1139 l 753 1333 l 558 1333 l 558 1236 l 461 1236 l 461 1042 l 656 1042 l 656 1139 z "},"Ẅ":{"ha":1118,"x_min":0,"x_max":0,"o":"m 947 0 l 947 194 l 1044 194 l 1044 972 l 753 972 l 753 486 l 656 486 l 656 681 l 461 681 l 461 486 l 364 486 l 364 972 l 72 972 l 72 194 l 169 194 l 169 0 l 461 0 l 461 292 l 656 292 l 656 0 z m 510 1042 l 510 1236 l 315 1236 l 315 1042 z m 801 1042 l 801 1236 l 607 1236 l 607 1042 z "},"ẅ":{"ha":1118,"x_min":0,"x_max":0,"o":"m 947 0 l 947 194 l 1044 194 l 1044 972 l 753 972 l 753 486 l 656 486 l 656 681 l 461 681 l 461 486 l 364 486 l 364 972 l 72 972 l 72 194 l 169 194 l 169 0 l 461 0 l 461 292 l 656 292 l 656 0 z m 510 1042 l 510 1236 l 315 1236 l 315 1042 z m 801 1042 l 801 1236 l 607 1236 l 607 1042 z "},"Ŵ":{"ha":1118,"x_min":0,"x_max":0,"o":"m 947 0 l 947 194 l 1044 194 l 1044 972 l 753 972 l 753 486 l 656 486 l 656 681 l 461 681 l 461 486 l 364 486 l 364 972 l 72 972 l 72 194 l 169 194 l 169 0 l 461 0 l 461 292 l 656 292 l 656 0 z m 801 1042 l 801 1236 l 704 1236 l 704 1333 l 413 1333 l 413 1236 l 315 1236 l 315 1042 l 510 1042 l 510 1139 l 607 1139 l 607 1042 z "},"ŵ":{"ha":1118,"x_min":0,"x_max":0,"o":"m 947 0 l 947 194 l 1044 194 l 1044 972 l 753 972 l 753 486 l 656 486 l 656 681 l 461 681 l 461 486 l 364 486 l 364 972 l 72 972 l 72 194 l 169 194 l 169 0 l 461 0 l 461 292 l 656 292 l 656 0 z m 801 1042 l 801 1236 l 704 1236 l 704 1333 l 413 1333 l 413 1236 l 315 1236 l 315 1042 l 510 1042 l 510 1139 l 607 1139 l 607 1042 z "},"Ỳ":{"ha":826,"x_min":0,"x_max":0,"o":"m 558 0 l 558 486 l 753 486 l 753 972 l 461 972 l 461 681 l 364 681 l 364 972 l 72 972 l 72 486 l 267 486 l 267 0 z m 510 1042 l 510 1236 l 413 1236 l 413 1333 l 218 1333 l 218 1139 l 315 1139 l 315 1042 z "},"ỳ":{"ha":826,"x_min":0,"x_max":0,"o":"m 558 0 l 558 486 l 753 486 l 753 972 l 461 972 l 461 681 l 364 681 l 364 972 l 72 972 l 72 486 l 267 486 l 267 0 z m 510 1042 l 510 1236 l 413 1236 l 413 1333 l 218 1333 l 218 1139 l 315 1139 l 315 1042 z "},"Ý":{"ha":826,"x_min":0,"x_max":0,"o":"m 558 0 l 558 486 l 753 486 l 753 972 l 461 972 l 461 681 l 364 681 l 364 972 l 72 972 l 72 486 l 267 486 l 267 0 z m 607 1139 l 607 1333 l 413 1333 l 413 1236 l 315 1236 l 315 1042 l 510 1042 l 510 1139 z "},"ý":{"ha":826,"x_min":0,"x_max":0,"o":"m 558 0 l 558 486 l 753 486 l 753 972 l 461 972 l 461 681 l 364 681 l 364 972 l 72 972 l 72 486 l 267 486 l 267 0 z m 607 1139 l 607 1333 l 413 1333 l 413 1236 l 315 1236 l 315 1042 l 510 1042 l 510 1139 z "},"Ŷ":{"ha":826,"x_min":0,"x_max":0,"o":"m 558 0 l 558 486 l 753 486 l 753 972 l 461 972 l 461 681 l 364 681 l 364 972 l 72 972 l 72 486 l 267 486 l 267 0 z m 656 1042 l 656 1236 l 558 1236 l 558 1333 l 267 1333 l 267 1236 l 169 1236 l 169 1042 l 364 1042 l 364 1139 l 461 1139 l 461 1042 z "},"ŷ":{"ha":826,"x_min":0,"x_max":0,"o":"m 558 0 l 558 486 l 753 486 l 753 972 l 461 972 l 461 681 l 364 681 l 364 972 l 72 972 l 72 486 l 267 486 l 267 0 z m 656 1042 l 656 1236 l 558 1236 l 558 1333 l 267 1333 l 267 1236 l 169 1236 l 169 1042 l 364 1042 l 364 1139 l 461 1139 l 461 1042 z "},"Ÿ":{"ha":826,"x_min":0,"x_max":0,"o":"m 558 0 l 558 486 l 753 486 l 753 972 l 461 972 l 461 681 l 364 681 l 364 972 l 72 972 l 72 486 l 267 486 l 267 0 z m 364 1042 l 364 1236 l 169 1236 l 169 1042 z m 656 1042 l 656 1236 l 461 1236 l 461 1042 z "},"ÿ":{"ha":826,"x_min":0,"x_max":0,"o":"m 558 0 l 558 486 l 753 486 l 753 972 l 461 972 l 461 681 l 364 681 l 364 972 l 72 972 l 72 486 l 267 486 l 267 0 z m 364 1042 l 364 1236 l 169 1236 l 169 1042 z m 656 1042 l 656 1236 l 461 1236 l 461 1042 z "},"Ź":{"ha":826,"x_min":0,"x_max":0,"o":"m 753 0 l 753 194 l 364 194 l 364 389 l 558 389 l 558 486 l 753 486 l 753 972 l 72 972 l 72 778 l 461 778 l 461 583 l 267 583 l 267 486 l 72 486 l 72 0 z m 558 1139 l 558 1333 l 364 1333 l 364 1236 l 267 1236 l 267 1042 l 461 1042 l 461 1139 z "},"ź":{"ha":826,"x_min":0,"x_max":0,"o":"m 753 0 l 753 194 l 364 194 l 364 389 l 558 389 l 558 486 l 753 486 l 753 972 l 72 972 l 72 778 l 461 778 l 461 583 l 267 583 l 267 486 l 72 486 l 72 0 z m 558 1139 l 558 1333 l 364 1333 l 364 1236 l 267 1236 l 267 1042 l 461 1042 l 461 1139 z "},"Ż":{"ha":826,"x_min":0,"x_max":0,"o":"m 753 0 l 753 194 l 364 194 l 364 389 l 558 389 l 558 486 l 753 486 l 753 972 l 72 972 l 72 778 l 461 778 l 461 583 l 267 583 l 267 486 l 72 486 l 72 0 z m 510 1042 l 510 1236 l 315 1236 l 315 1042 z "},"ż":{"ha":826,"x_min":0,"x_max":0,"o":"m 753 0 l 753 194 l 364 194 l 364 389 l 558 389 l 558 486 l 753 486 l 753 972 l 72 972 l 72 778 l 461 778 l 461 583 l 267 583 l 267 486 l 72 486 l 72 0 z m 510 1042 l 510 1236 l 315 1236 l 315 1042 z "},"Ž":{"ha":826,"x_min":0,"x_max":0,"o":"m 753 0 l 753 194 l 364 194 l 364 389 l 558 389 l 558 486 l 753 486 l 753 972 l 72 972 l 72 778 l 461 778 l 461 583 l 267 583 l 267 486 l 72 486 l 72 0 z m 558 1042 l 558 1139 l 656 1139 l 656 1333 l 461 1333 l 461 1236 l 364 1236 l 364 1333 l 169 1333 l 169 1139 l 267 1139 l 267 1042 z "},"ž":{"ha":826,"x_min":0,"x_max":0,"o":"m 753 0 l 753 194 l 364 194 l 364 389 l 558 389 l 558 486 l 753 486 l 753 972 l 72 972 l 72 778 l 461 778 l 461 583 l 267 583 l 267 486 l 72 486 l 72 0 z m 558 1042 l 558 1139 l 656 1139 l 656 1333 l 461 1333 l 461 1236 l 364 1236 l 364 1333 l 169 1333 l 169 1139 l 267 1139 l 267 1042 z "},"ẞ":{"ha":826,"x_min":0,"x_max":0,"o":"m 656 0 l 656 97 l 753 97 l 753 389 l 656 389 l 656 486 l 753 486 l 753 972 l 169 972 l 169 875 l 72 875 l 72 0 l 364 0 l 364 778 l 461 778 l 461 0 z "},"ß":{"ha":826,"x_min":0,"x_max":0,"o":"m 656 0 l 656 97 l 753 97 l 753 389 l 656 389 l 656 486 l 753 486 l 753 972 l 169 972 l 169 875 l 72 875 l 72 0 l 364 0 l 364 778 l 461 778 l 461 0 z "},"ﬁ":{"ha":1257,"x_min":0,"x_max":0,"o":"m 364 0 l 364 389 l 656 389 l 656 583 l 364 583 l 364 778 l 753 778 l 753 972 l 72 972 l 72 0 z m 1183 0 l 1183 972 l 892 972 l 892 0 z "},"ﬂ":{"ha":1549,"x_min":0,"x_max":0,"o":"m 364 0 l 364 389 l 656 389 l 656 583 l 364 583 l 364 778 l 753 778 l 753 972 l 72 972 l 72 0 z m 1475 0 l 1475 194 l 1183 194 l 1183 972 l 892 972 l 892 0 z "},"Ĳ":{"ha":1257,"x_min":0,"x_max":0,"o":"m 364 0 l 364 972 l 72 972 l 72 0 z m 1183 0 l 1183 972 l 892 972 l 892 194 l 794 194 l 794 389 l 503 389 l 503 0 z "},"ĳ":{"ha":1257,"x_min":0,"x_max":0,"o":"m 364 0 l 364 972 l 72 972 l 72 0 z m 1183 0 l 1183 972 l 892 972 l 892 194 l 794 194 l 794 389 l 503 389 l 503 0 z "},"&":{"ha":1021,"x_min":0,"x_max":0,"o":"m 947 0 l 947 194 l 753 194 l 753 389 l 850 389 l 850 583 l 656 583 l 656 972 l 169 972 l 169 583 l 72 583 l 72 0 z m 461 583 l 364 583 l 364 778 l 461 778 z m 461 194 l 364 194 l 364 389 l 461 389 z "},"#":{"ha":1021,"x_min":0,"x_max":0,"o":"m 850 0 l 850 194 l 947 194 l 947 389 l 850 389 l 850 583 l 947 583 l 947 778 l 850 778 l 850 972 l 558 972 l 558 778 l 461 778 l 461 972 l 169 972 l 169 778 l 72 778 l 72 583 l 169 583 l 169 389 l 72 389 l 72 194 l 169 194 l 169 0 l 461 0 l 461 194 l 558 194 l 558 0 z m 558 389 l 461 389 l 461 583 l 558 583 z "},"⁄":{"ha":1021,"x_min":0,"x_max":0,"o":"m 364 0 l 364 194 l 558 194 l 558 486 l 753 486 l 753 681 l 947 681 l 947 972 l 656 972 l 656 778 l 461 778 l 461 486 l 267 486 l 267 292 l 72 292 l 72 0 z "},"%":{"ha":1021,"x_min":0,"x_max":0,"o":"m 364 0 l 364 194 l 558 194 l 558 486 l 753 486 l 753 681 l 947 681 l 947 972 l 656 972 l 656 778 l 461 778 l 461 486 l 267 486 l 267 292 l 72 292 l 72 0 z m 947 0 l 947 292 l 656 292 l 656 0 z m 364 681 l 364 972 l 72 972 l 72 681 z "},"‰":{"ha":1167,"x_min":0,"x_max":0,"o":"m 364 0 l 364 194 l 558 194 l 558 486 l 753 486 l 753 681 l 947 681 l 947 972 l 656 972 l 656 778 l 461 778 l 461 486 l 267 486 l 267 292 l 72 292 l 72 0 z m 1093 0 l 1093 292 l 656 292 l 656 0 z m 364 681 l 364 972 l 72 972 l 72 681 z "},"+":{"ha":729,"x_min":0,"x_max":0,"o":"m 461 194 l 461 389 l 656 389 l 656 583 l 461 583 l 461 778 l 267 778 l 267 583 l 72 583 l 72 389 l 267 389 l 267 194 z "},"−":{"ha":729,"x_min":0,"x_max":0,"o":"m 656 389 l 656 583 l 72 583 l 72 389 z "},"×":{"ha":826,"x_min":0,"x_max":0,"o":"m 753 146 l 753 340 l 656 340 l 656 438 l 558 438 l 558 535 l 656 535 l 656 632 l 753 632 l 753 826 l 558 826 l 558 729 l 461 729 l 461 632 l 364 632 l 364 729 l 267 729 l 267 826 l 72 826 l 72 632 l 169 632 l 169 535 l 267 535 l 267 438 l 169 438 l 169 340 l 72 340 l 72 146 l 267 146 l 267 243 l 364 243 l 364 340 l 461 340 l 461 243 l 558 243 l 558 146 z "},"÷":{"ha":924,"x_min":0,"x_max":0,"o":"m 607 681 l 607 875 l 315 875 l 315 681 z m 607 97 l 607 292 l 315 292 l 315 97 z m 850 389 l 850 583 l 72 583 l 72 389 z "},"±":{"ha":729,"x_min":0,"x_max":0,"o":"m 461 389 l 461 583 l 656 583 l 656 778 l 461 778 l 461 972 l 267 972 l 267 778 l 72 778 l 72 583 l 267 583 l 267 389 z m 656 0 l 656 194 l 72 194 l 72 0 z "},"=":{"ha":729,"x_min":0,"x_max":0,"o":"m 656 194 l 656 389 l 72 389 l 72 194 z m 656 583 l 656 778 l 72 778 l 72 583 z "},"$":{"ha":826,"x_min":0,"x_max":0,"o":"m 753 97 l 753 583 l 364 583 l 364 681 l 753 681 l 753 875 l 510 875 l 510 1042 l 315 1042 l 315 875 l 72 875 l 72 389 l 461 389 l 461 292 l 72 292 l 72 97 l 315 97 l 315 -69 l 510 -69 l 510 97 z "},"¢":{"ha":729,"x_min":0,"x_max":0,"o":"m 461 0 l 461 194 l 656 194 l 656 389 l 364 389 l 364 583 l 656 583 l 656 778 l 461 778 l 461 972 l 267 972 l 267 778 l 72 778 l 72 194 l 267 194 l 267 0 z "},"€":{"ha":826,"x_min":0,"x_max":0,"o":"m 753 0 l 753 194 l 461 194 l 461 389 l 753 389 l 753 583 l 461 583 l 461 778 l 753 778 l 753 972 l 267 972 l 267 875 l 169 875 l 169 583 l 72 583 l 72 389 l 169 389 l 169 97 l 267 97 l 267 0 z "},"£":{"ha":826,"x_min":0,"x_max":0,"o":"m 753 0 l 753 194 l 461 194 l 461 389 l 656 389 l 656 583 l 461 583 l 461 778 l 656 778 l 656 972 l 267 972 l 267 875 l 169 875 l 169 583 l 72 583 l 72 389 l 169 389 l 169 194 l 72 194 l 72 0 z "},"¥":{"ha":826,"x_min":0,"x_max":0,"o":"m 558 0 l 558 194 l 753 194 l 753 389 l 558 389 l 558 486 l 753 486 l 753 972 l 461 972 l 461 681 l 364 681 l 364 972 l 72 972 l 72 486 l 267 486 l 267 389 l 72 389 l 72 194 l 267 194 l 267 0 z "},"ƒ":{"ha":826,"x_min":0,"x_max":0,"o":"m 753 0 l 753 972 l 72 972 l 72 0 l 364 0 l 364 389 l 461 389 l 461 0 z m 510 535 l 461 535 l 461 583 l 364 583 l 364 535 l 315 535 l 315 681 l 364 681 l 364 729 l 267 729 l 267 826 l 364 826 l 364 729 l 461 729 l 461 681 l 510 681 z m 558 729 l 461 729 l 461 826 l 558 826 z "},"!":{"ha":438,"x_min":0,"x_max":0,"o":"m 364 389 l 364 972 l 72 972 l 72 389 z m 364 0 l 364 292 l 72 292 l 72 0 z "},"¡":{"ha":438,"x_min":0,"x_max":0,"o":"m 364 0 l 364 583 l 72 583 l 72 0 z m 364 681 l 364 972 l 72 972 l 72 681 z "},"?":{"ha":924,"x_min":0,"x_max":0,"o":"m 850 486 l 850 875 l 753 875 l 753 972 l 169 972 l 169 875 l 72 875 l 72 583 l 267 583 l 267 778 l 461 778 l 461 583 l 364 583 l 364 389 l 656 389 l 656 486 z m 656 0 l 656 292 l 364 292 l 364 0 z "},"¿":{"ha":924,"x_min":0,"x_max":0,"o":"m 753 0 l 753 97 l 850 97 l 850 389 l 656 389 l 656 194 l 461 194 l 461 389 l 558 389 l 558 583 l 267 583 l 267 486 l 72 486 l 72 97 l 169 97 l 169 0 z m 558 681 l 558 972 l 267 972 l 267 681 z "},"/":{"ha":1021,"x_min":0,"x_max":0,"o":"m 364 0 l 364 194 l 558 194 l 558 486 l 753 486 l 753 681 l 947 681 l 947 972 l 656 972 l 656 778 l 461 778 l 461 486 l 267 486 l 267 292 l 72 292 l 72 0 z "},"\\":{"ha":1021,"x_min":0,"x_max":0,"o":"m 947 0 l 947 292 l 753 292 l 753 486 l 558 486 l 558 778 l 364 778 l 364 972 l 72 972 l 72 681 l 267 681 l 267 486 l 461 486 l 461 194 l 656 194 l 656 0 z "},"|":{"ha":438,"x_min":0,"x_max":0,"o":"m 364 -347 l 364 972 l 72 972 l 72 -347 z "},"¦":{"ha":438,"x_min":0,"x_max":0,"o":"m 364 -347 l 364 215 l 72 215 l 72 -347 z m 364 410 l 364 972 l 72 972 l 72 410 z "},"<":{"ha":826,"x_min":0,"x_max":0,"o":"m 753 146 l 753 340 l 558 340 l 558 438 l 364 438 l 364 535 l 558 535 l 558 632 l 753 632 l 753 826 l 461 826 l 461 729 l 267 729 l 267 632 l 72 632 l 72 340 l 267 340 l 267 243 l 461 243 l 461 146 z "},">":{"ha":826,"x_min":0,"x_max":0,"o":"m 753 340 l 753 632 l 558 632 l 558 729 l 364 729 l 364 826 l 72 826 l 72 632 l 267 632 l 267 535 l 461 535 l 461 438 l 267 438 l 267 340 l 72 340 l 72 146 l 364 146 l 364 243 l 558 243 l 558 340 z "},"(":{"ha":826,"x_min":0,"x_max":0,"o":"m 753 0 l 753 194 l 558 194 l 558 389 l 364 389 l 364 583 l 560 583 l 560 778 l 753 778 l 753 972 l 267 972 l 267 778 l 72 778 l 72 194 l 267 194 l 267 0 z "},")":{"ha":826,"x_min":0,"x_max":0,"o":"m 558 0 l 558 194 l 753 194 l 753 778 l 558 778 l 558 972 l 72 972 l 72 778 l 265 778 l 265 583 l 461 583 l 461 389 l 267 389 l 267 194 l 72 194 l 72 0 z "},"{":{"ha":729,"x_min":0,"x_max":0,"o":"m 656 0 l 656 194 l 461 194 l 461 389 l 364 389 l 364 583 l 463 583 l 463 778 l 656 778 l 656 972 l 169 972 l 169 583 l 72 583 l 72 389 l 169 389 l 169 0 z "},"}":{"ha":729,"x_min":0,"x_max":0,"o":"m 558 0 l 558 389 l 656 389 l 656 583 l 558 583 l 558 972 l 72 972 l 72 778 l 265 778 l 265 583 l 364 583 l 364 389 l 267 389 l 267 194 l 72 194 l 72 0 z "},"[":{"ha":646,"x_min":0,"x_max":0,"o":"m 572 0 l 572 194 l 364 194 l 364 778 l 572 778 l 572 972 l 72 972 l 72 0 z "},"]":{"ha":646,"x_min":0,"x_max":0,"o":"m 572 0 l 572 972 l 72 972 l 72 778 l 281 778 l 281 194 l 72 194 l 72 0 z "},".":{"ha":438,"x_min":0,"x_max":0,"o":"m 364 0 l 364 292 l 72 292 l 72 0 z "},",":{"ha":438,"x_min":0,"x_max":0,"o":"m 364 -194 l 364 292 l 72 292 l 72 0 l 169 0 l 169 -194 z "},":":{"ha":438,"x_min":0,"x_max":0,"o":"m 364 486 l 364 778 l 72 778 l 72 486 z m 364 0 l 364 292 l 72 292 l 72 0 z "},";":{"ha":438,"x_min":0,"x_max":0,"o":"m 364 486 l 364 778 l 72 778 l 72 486 z m 364 -194 l 364 292 l 72 292 l 72 0 l 169 0 l 169 -194 z "},"…":{"ha":1215,"x_min":0,"x_max":0,"o":"m 364 0 l 364 292 l 72 292 l 72 0 z m 753 0 l 753 292 l 461 292 l 461 0 z m 1142 0 l 1142 292 l 850 292 l 850 0 z "},"·":{"ha":438,"x_min":0,"x_max":0,"o":"m 364 340 l 364 632 l 72 632 l 72 340 z "},"•":{"ha":535,"x_min":0,"x_max":0,"o":"m 461 292 l 461 681 l 72 681 l 72 292 z "},"†":{"ha":826,"x_min":0,"x_max":0,"o":"m 558 0 l 558 583 l 753 583 l 753 778 l 558 778 l 558 972 l 267 972 l 267 778 l 72 778 l 72 583 l 267 583 l 267 0 z "},"‡":{"ha":826,"x_min":0,"x_max":0,"o":"m 558 0 l 558 194 l 753 194 l 753 389 l 558 389 l 558 583 l 753 583 l 753 778 l 558 778 l 558 972 l 267 972 l 267 778 l 72 778 l 72 583 l 267 583 l 267 389 l 72 389 l 72 194 l 267 194 l 267 0 z "},"°":{"ha":729,"x_min":0,"x_max":0,"o":"m 558 389 l 558 486 l 656 486 l 656 875 l 558 875 l 558 972 l 169 972 l 169 875 l 72 875 l 72 486 l 169 486 l 169 389 z m 461 583 l 267 583 l 267 778 l 461 778 z "},"-":{"ha":632,"x_min":0,"x_max":0,"o":"m 558 389 l 558 583 l 72 583 l 72 389 z "},"­":{"ha":632,"x_min":0,"x_max":0,"o":"m 558 389 l 558 583 l 72 583 l 72 389 z "},"–":{"ha":729,"x_min":0,"x_max":0,"o":"m 656 389 l 656 583 l 72 583 l 72 389 z "},"—":{"ha":1118,"x_min":0,"x_max":0,"o":"m 1044 389 l 1044 583 l 72 583 l 72 389 z "},"_":{"ha":1118,"x_min":0,"x_max":0,"o":"m 1044 -194 l 1044 0 l 72 0 l 72 -194 z "},"‹":{"ha":632,"x_min":0,"x_max":0,"o":"m 558 194 l 558 389 l 461 389 l 461 438 l 364 438 l 364 535 l 461 535 l 461 632 l 558 632 l 558 778 l 364 778 l 364 681 l 217 681 l 217 583 l 72 583 l 72 389 l 217 389 l 217 292 l 364 292 l 364 194 z "},"›":{"ha":632,"x_min":0,"x_max":0,"o":"m 558 389 l 558 583 l 414 583 l 414 681 l 267 681 l 267 778 l 72 778 l 72 632 l 169 632 l 169 535 l 267 535 l 267 438 l 169 438 l 169 389 l 72 389 l 72 194 l 267 194 l 267 292 l 414 292 l 414 389 z "},"«":{"ha":1118,"x_min":0,"x_max":0,"o":"m 558 194 l 558 389 l 461 389 l 461 438 l 364 438 l 364 535 l 461 535 l 461 632 l 558 632 l 558 778 l 364 778 l 364 681 l 217 681 l 217 583 l 72 583 l 72 389 l 217 389 l 217 292 l 364 292 l 364 194 z m 1044 194 l 1044 389 l 947 389 l 947 438 l 850 438 l 850 535 l 947 535 l 947 632 l 1044 632 l 1044 778 l 850 778 l 850 681 l 703 681 l 703 583 l 558 583 l 558 389 l 703 389 l 703 292 l 850 292 l 850 194 z "},"»":{"ha":1118,"x_min":0,"x_max":0,"o":"m 1044 389 l 1044 583 l 900 583 l 900 681 l 753 681 l 753 778 l 558 778 l 558 632 l 656 632 l 656 535 l 753 535 l 753 438 l 656 438 l 656 389 l 558 389 l 558 583 l 414 583 l 414 681 l 267 681 l 267 778 l 72 778 l 72 632 l 169 632 l 169 535 l 267 535 l 267 438 l 169 438 l 169 389 l 72 389 l 72 194 l 267 194 l 267 292 l 414 292 l 414 389 l 558 389 l 558 194 l 753 194 l 753 292 l 900 292 l 900 389 z "},"'":{"ha":438,"x_min":0,"x_max":0,"o":"m 364 486 l 364 972 l 72 972 l 72 486 z "},"\"":{"ha":826,"x_min":0,"x_max":0,"o":"m 364 486 l 364 972 l 72 972 l 72 486 z m 753 486 l 753 972 l 461 972 l 461 486 z "},"“":{"ha":826,"x_min":0,"x_max":0,"o":"m 753 486 l 753 778 l 656 778 l 656 972 l 461 972 l 461 486 z m 364 486 l 364 778 l 267 778 l 267 972 l 72 972 l 72 486 z "},"”":{"ha":826,"x_min":0,"x_max":0,"o":"m 364 486 l 364 972 l 72 972 l 72 681 l 169 681 l 169 486 z m 753 486 l 753 972 l 461 972 l 461 681 l 558 681 l 558 486 z "},"‘":{"ha":438,"x_min":0,"x_max":0,"o":"m 364 486 l 364 778 l 267 778 l 267 972 l 72 972 l 72 486 z "},"’":{"ha":438,"x_min":0,"x_max":0,"o":"m 364 486 l 364 972 l 72 972 l 72 681 l 169 681 l 169 486 z "},"‚":{"ha":438,"x_min":0,"x_max":0,"o":"m 364 -194 l 364 292 l 72 292 l 72 0 l 169 0 l 169 -194 z "},"„":{"ha":826,"x_min":0,"x_max":0,"o":"m 364 -194 l 364 292 l 72 292 l 72 0 l 169 0 l 169 -194 z m 753 -194 l 753 292 l 461 292 l 461 0 l 558 0 l 558 -194 z "},"@":{"ha":1322,"x_min":0,"x_max":0,"o":"m 169 -194 l 957 -194 l 957 0 l 364 0 l 364 778 l 957 778 l 957 292 l 753 292 l 753 431 l 850 431 l 850 625 l 506 625 l 506 97 l 1249 97 l 1249 875 l 1151 875 l 1151 972 l 169 972 l 169 875 l 72 875 l 72 -97 l 169 -97 z "},"©":{"ha":1118,"x_min":0,"x_max":0,"o":"m 1044 194 l 1044 778 l 947 778 l 947 875 l 850 875 l 850 972 l 267 972 l 267 875 l 169 875 l 169 778 l 72 778 l 72 194 l 169 194 l 169 97 l 267 97 l 267 0 l 850 0 l 850 97 l 947 97 l 947 194 z m 850 194 l 753 194 l 753 97 l 364 97 l 364 194 l 267 194 l 267 778 l 364 778 l 364 875 l 753 875 l 753 778 l 850 778 z m 656 194 l 656 292 l 753 292 l 753 389 l 558 389 l 558 583 l 753 583 l 753 681 l 656 681 l 656 778 l 461 778 l 461 681 l 364 681 l 364 292 l 461 292 l 461 194 z "},"®":{"ha":924,"x_min":0,"x_max":0,"o":"m 753 389 l 753 486 l 656 486 l 656 583 l 607 583 l 607 681 l 656 681 l 656 875 l 267 875 l 267 972 l 169 972 l 169 875 l 267 875 l 267 486 l 413 486 l 413 583 l 510 583 l 510 486 l 656 486 l 656 389 z m 656 292 l 656 389 l 267 389 l 267 486 l 169 486 l 169 875 l 72 875 l 72 486 l 169 486 l 169 389 l 267 389 l 267 292 z m 850 486 l 850 875 l 753 875 l 753 972 l 656 972 l 656 1069 l 267 1069 l 267 972 l 656 972 l 656 875 l 753 875 l 753 486 z m 510 681 l 413 681 l 413 778 l 510 778 z "},"™":{"ha":1410,"x_min":0,"x_max":0,"o":"m 1336 486 l 1336 972 l 1142 972 l 1142 875 l 1044 875 l 1044 778 l 947 778 l 947 875 l 850 875 l 850 972 l 656 972 l 656 486 l 850 486 l 850 681 l 947 681 l 947 583 l 1044 583 l 1044 681 l 1142 681 l 1142 486 z m 413 486 l 413 875 l 558 875 l 558 972 l 72 972 l 72 875 l 218 875 l 218 486 z "},"*":{"ha":729,"x_min":0,"x_max":0,"o":"m 656 389 l 656 583 l 558 583 l 558 778 l 656 778 l 656 972 l 461 972 l 461 875 l 267 875 l 267 972 l 72 972 l 72 778 l 169 778 l 169 583 l 72 583 l 72 389 l 267 389 l 267 486 l 461 486 l 461 389 z "},"^":{"ha":632,"x_min":0,"x_max":0,"o":"m 558 681 l 558 875 l 461 875 l 461 972 l 169 972 l 169 875 l 72 875 l 72 681 l 267 681 l 267 778 l 364 778 l 364 681 z "},"~":{"ha":729,"x_min":0,"x_max":0,"o":"m 656 778 l 656 972 l 461 972 l 461 875 l 364 875 l 364 972 l 169 972 l 169 875 l 72 875 l 72 681 l 267 681 l 267 778 l 364 778 l 364 681 l 558 681 l 558 778 z "},"¬":{"ha":729,"x_min":0,"x_max":0,"o":"m 656 194 l 656 583 l 72 583 l 72 389 l 461 389 l 461 194 z "},"∆":{"ha":826,"x_min":0,"x_max":0,"o":"m 753 0 l 753 583 l 656 583 l 656 778 l 558 778 l 558 972 l 267 972 l 267 778 l 169 778 l 169 583 l 72 583 l 72 0 z m 461 194 l 364 194 l 364 486 l 461 486 z "},"∏":{"ha":826,"x_min":0,"x_max":0,"o":"m 753 0 l 753 972 l 72 972 l 72 0 l 364 0 l 364 778 l 461 778 l 461 0 z "},"Ω":{"ha":1021,"x_min":0,"x_max":0,"o":"m 947 0 l 947 194 l 753 194 l 753 292 l 947 292 l 947 972 l 72 972 l 72 292 l 267 292 l 267 194 l 72 194 l 72 0 l 461 0 l 461 389 l 364 389 l 364 778 l 656 778 l 656 389 l 558 389 l 558 0 z "},"∑":{"ha":826,"x_min":0,"x_max":0,"o":"m 753 0 l 753 194 l 413 194 l 413 292 l 510 292 l 510 389 l 656 389 l 656 583 l 510 583 l 510 681 l 413 681 l 413 778 l 753 778 l 753 972 l 72 972 l 72 583 l 267 583 l 267 389 l 72 389 l 72 0 z "},"∞":{"ha":1118,"x_min":0,"x_max":0,"o":"m 1044 236 l 1044 736 l 899 736 l 899 833 l 607 833 l 607 736 l 510 736 l 510 833 l 218 833 l 218 736 l 72 736 l 72 236 l 218 236 l 218 139 l 510 139 l 510 236 l 607 236 l 607 139 l 899 139 l 899 236 z m 850 431 l 656 431 l 656 542 l 850 542 z m 461 431 l 267 431 l 267 542 l 461 542 z "},"◊":{"ha":826,"x_min":0,"x_max":0,"o":"m 558 0 l 558 97 l 656 97 l 656 292 l 753 292 l 753 681 l 656 681 l 656 875 l 558 875 l 558 972 l 267 972 l 267 875 l 169 875 l 169 681 l 72 681 l 72 292 l 169 292 l 169 97 l 267 97 l 267 0 z m 461 194 l 364 194 l 364 389 l 239 389 l 239 583 l 364 583 l 364 778 l 461 778 l 461 583 l 586 583 l 586 389 l 461 389 z "},"´":{"ha":438,"x_min":0,"x_max":0,"o":"m 364 1139 l 364 1333 l 169 1333 l 169 1236 l 72 1236 l 72 1042 l 267 1042 l 267 1139 z "},"˘":{"ha":632,"x_min":0,"x_max":0,"o":"m 558 1042 l 558 1264 l 364 1264 l 364 1167 l 267 1167 l 267 1264 l 72 1264 l 72 1042 z "},"ˇ":{"ha":632,"x_min":0,"x_max":0,"o":"m 461 1042 l 461 1139 l 558 1139 l 558 1333 l 364 1333 l 364 1236 l 267 1236 l 267 1333 l 72 1333 l 72 1139 l 169 1139 l 169 1042 z "},"ˆ":{"ha":632,"x_min":0,"x_max":0,"o":"m 558 1042 l 558 1236 l 461 1236 l 461 1333 l 169 1333 l 169 1236 l 72 1236 l 72 1042 l 267 1042 l 267 1139 l 364 1139 l 364 1042 z "},"¨":{"ha":632,"x_min":0,"x_max":0,"o":"m 267 1042 l 267 1236 l 72 1236 l 72 1042 z m 558 1042 l 558 1236 l 364 1236 l 364 1042 z "},"˙":{"ha":340,"x_min":0,"x_max":0,"o":"m 267 1042 l 267 1236 l 72 1236 l 72 1042 z "},"`":{"ha":438,"x_min":0,"x_max":0,"o":"m 364 1042 l 364 1236 l 267 1236 l 267 1333 l 72 1333 l 72 1139 l 169 1139 l 169 1042 z "},"˝":{"ha":632,"x_min":0,"x_max":0,"o":"m 267 972 l 267 1236 l 72 1236 l 72 972 z m 558 972 l 558 1236 l 364 1236 l 364 972 z "},"˚":{"ha":632,"x_min":0,"x_max":0,"o":"m 461 972 l 461 1069 l 558 1069 l 558 1278 l 461 1278 l 461 1375 l 169 1375 l 169 1278 l 72 1278 l 72 1069 l 169 1069 l 169 972 z m 364 1125 l 267 1125 l 267 1222 l 364 1222 z "},"˜":{"ha":729,"x_min":0,"x_max":0,"o":"m 656 1139 l 656 1333 l 461 1333 l 461 1236 l 364 1236 l 364 1333 l 169 1333 l 169 1236 l 72 1236 l 72 1042 l 267 1042 l 267 1139 l 364 1139 l 364 1042 l 558 1042 l 558 1139 z "},"¯":{"ha":632,"x_min":0,"x_max":0,"o":"m 558 1042 l 558 1236 l 72 1236 l 72 1042 z "},"ˉ":{"ha":632,"x_min":0,"x_max":0,"o":"m 558 1042 l 558 1236 l 72 1236 l 72 1042 z "},"":{"ha":438,"x_min":0,"x_max":0,"o":"m 364 -347 l 364 -69 l 72 -69 l 72 -264 l 169 -264 l 169 -347 z "},"¸":{"ha":438,"x_min":0,"x_max":0,"o":"m 364 -347 l 364 28 l 169 28 l 169 -153 l 72 -153 l 72 -347 z "},"˛":{"ha":438,"x_min":0,"x_max":0,"o":"m 364 -347 l 364 -153 l 267 -153 l 267 28 l 72 28 l 72 -347 z "},"¶":{"ha":1118,"x_min":0,"x_max":0,"o":"m 1044 -194 l 1044 972 l 169 972 l 169 778 l 72 778 l 72 583 l 169 583 l 169 389 l 364 389 l 364 -194 l 656 -194 l 656 389 l 753 389 l 753 -194 z m 753 583 l 656 583 l 656 778 l 753 778 z "},"΄":{"ha":438,"x_min":0,"x_max":0,"o":"m 364 1139 l 364 1333 l 169 1333 l 169 1236 l 72 1236 l 72 1042 l 267 1042 l 267 1139 z "},"΅":{"ha":924,"x_min":0,"x_max":0,"o":"m 267 1042 l 267 1236 l 72 1236 l 72 1042 z m 558 972 l 558 1306 l 364 1306 l 364 972 z m 850 1042 l 850 1236 l 656 1236 l 656 1042 z "},"Ά":{"ha":1215,"x_min":0,"x_max":0,"o":"m 1142 0 l 1142 972 l 461 972 l 461 0 l 753 0 l 753 389 l 850 389 l 850 0 z m 850 583 l 753 583 l 753 778 l 850 778 z m 364 778 l 364 972 l 169 972 l 169 875 l 72 875 l 72 681 l 267 681 l 267 778 z "},"Έ":{"ha":1215,"x_min":0,"x_max":0,"o":"m 1142 0 l 1142 194 l 753 194 l 753 389 l 1044 389 l 1044 583 l 753 583 l 753 778 l 1142 778 l 1142 972 l 461 972 l 461 0 z m 364 778 l 364 972 l 169 972 l 169 875 l 72 875 l 72 681 l 267 681 l 267 778 z "},"Ή":{"ha":1215,"x_min":0,"x_max":0,"o":"m 1142 0 l 1142 972 l 850 972 l 850 583 l 753 583 l 753 972 l 461 972 l 461 0 l 753 0 l 753 389 l 850 389 l 850 0 z m 364 778 l 364 972 l 169 972 l 169 875 l 72 875 l 72 681 l 267 681 l 267 778 z "},"Ί":{"ha":826,"x_min":0,"x_max":0,"o":"m 753 0 l 753 972 l 461 972 l 461 0 z m 364 778 l 364 972 l 169 972 l 169 875 l 72 875 l 72 681 l 267 681 l 267 778 z "},"Ό":{"ha":1215,"x_min":0,"x_max":0,"o":"m 1142 0 l 1142 972 l 461 972 l 461 0 z m 850 194 l 753 194 l 753 778 l 850 778 z m 364 778 l 364 972 l 169 972 l 169 875 l 72 875 l 72 681 l 267 681 l 267 778 z "},"Ύ":{"ha":1215,"x_min":0,"x_max":0,"o":"m 947 0 l 947 486 l 1142 486 l 1142 972 l 850 972 l 850 681 l 753 681 l 753 972 l 461 972 l 461 486 l 656 486 l 656 0 z m 364 778 l 364 972 l 169 972 l 169 875 l 72 875 l 72 681 l 267 681 l 267 778 z "},"Ώ":{"ha":1410,"x_min":0,"x_max":0,"o":"m 1336 0 l 1336 194 l 1142 194 l 1142 292 l 1336 292 l 1336 972 l 461 972 l 461 292 l 656 292 l 656 194 l 461 194 l 461 0 l 850 0 l 850 389 l 753 389 l 753 778 l 1044 778 l 1044 389 l 947 389 l 947 0 z m 364 778 l 364 972 l 169 972 l 169 875 l 72 875 l 72 681 l 267 681 l 267 778 z "},"ΐ":{"ha":438,"x_min":0,"x_max":0,"o":"m 364 0 l 364 972 l 315 972 l 315 1306 l 121 1306 l 121 972 l 72 972 l 72 0 z m 607 1042 l 607 1236 l 413 1236 l 413 1042 z m 24 1042 l 24 1236 l -171 1236 l -171 1042 z "},"Α":{"ha":826,"x_min":0,"x_max":0,"o":"m 753 0 l 753 972 l 72 972 l 72 0 l 364 0 l 364 389 l 461 389 l 461 0 z m 461 583 l 364 583 l 364 778 l 461 778 z "},"Β":{"ha":826,"x_min":0,"x_max":0,"o":"m 753 0 l 753 486 l 656 486 l 656 583 l 753 583 l 753 972 l 72 972 l 72 0 z m 461 583 l 364 583 l 364 778 l 461 778 z m 461 194 l 364 194 l 364 389 l 461 389 z "},"Γ":{"ha":826,"x_min":0,"x_max":0,"o":"m 364 0 l 364 778 l 753 778 l 753 972 l 72 972 l 72 0 z "},"Δ":{"ha":826,"x_min":0,"x_max":0,"o":"m 753 0 l 753 583 l 656 583 l 656 778 l 558 778 l 558 972 l 267 972 l 267 778 l 169 778 l 169 583 l 72 583 l 72 0 z m 461 194 l 364 194 l 364 486 l 461 486 z "},"Ε":{"ha":826,"x_min":0,"x_max":0,"o":"m 753 0 l 753 194 l 364 194 l 364 389 l 656 389 l 656 583 l 364 583 l 364 778 l 753 778 l 753 972 l 72 972 l 72 0 z "},"Ζ":{"ha":826,"x_min":0,"x_max":0,"o":"m 753 0 l 753 194 l 364 194 l 364 389 l 558 389 l 558 486 l 753 486 l 753 972 l 72 972 l 72 778 l 461 778 l 461 583 l 267 583 l 267 486 l 72 486 l 72 0 z "},"Η":{"ha":826,"x_min":0,"x_max":0,"o":"m 753 0 l 753 972 l 461 972 l 461 583 l 364 583 l 364 972 l 72 972 l 72 0 l 364 0 l 364 389 l 461 389 l 461 0 z "},"Θ":{"ha":826,"x_min":0,"x_max":0,"o":"m 753 0 l 753 972 l 72 972 l 72 0 z m 461 583 l 364 583 l 364 778 l 461 778 z m 461 194 l 364 194 l 364 389 l 461 389 z "},"Ι":{"ha":438,"x_min":0,"x_max":0,"o":"m 364 0 l 364 972 l 72 972 l 72 0 z "},"Κ":{"ha":826,"x_min":0,"x_max":0,"o":"m 753 0 l 753 486 l 558 486 l 558 583 l 753 583 l 753 972 l 461 972 l 461 681 l 364 681 l 364 972 l 72 972 l 72 0 l 364 0 l 364 292 l 461 292 l 461 0 z "},"Λ":{"ha":826,"x_min":0,"x_max":0,"o":"m 753 0 l 753 583 l 656 583 l 656 778 l 558 778 l 558 972 l 267 972 l 267 778 l 169 778 l 169 583 l 72 583 l 72 0 l 364 0 l 364 486 l 461 486 l 461 0 z "},"Μ":{"ha":1118,"x_min":0,"x_max":0,"o":"m 1044 0 l 1044 972 l 753 972 l 753 778 l 656 778 l 656 583 l 461 583 l 461 778 l 364 778 l 364 972 l 72 972 l 72 0 l 364 0 l 364 389 l 461 389 l 461 194 l 656 194 l 656 389 l 753 389 l 753 0 z "},"Ν":{"ha":924,"x_min":0,"x_max":0,"o":"m 850 0 l 850 972 l 558 972 l 558 583 l 461 583 l 461 778 l 364 778 l 364 972 l 72 972 l 72 0 l 364 0 l 364 389 l 461 389 l 461 194 l 558 194 l 558 0 z "},"Ξ":{"ha":826,"x_min":0,"x_max":0,"o":"m 753 778 l 753 972 l 72 972 l 72 778 z m 753 0 l 753 194 l 72 194 l 72 0 z m 558 389 l 558 583 l 267 583 l 267 389 z "},"Ο":{"ha":826,"x_min":0,"x_max":0,"o":"m 753 0 l 753 972 l 72 972 l 72 0 z m 461 194 l 364 194 l 364 778 l 461 778 z "},"Π":{"ha":826,"x_min":0,"x_max":0,"o":"m 753 0 l 753 972 l 72 972 l 72 0 l 364 0 l 364 778 l 461 778 l 461 0 z "},"Ρ":{"ha":826,"x_min":0,"x_max":0,"o":"m 364 0 l 364 389 l 753 389 l 753 972 l 72 972 l 72 0 z m 461 583 l 364 583 l 364 778 l 461 778 z "},"Σ":{"ha":826,"x_min":0,"x_max":0,"o":"m 753 0 l 753 194 l 413 194 l 413 292 l 510 292 l 510 389 l 656 389 l 656 583 l 510 583 l 510 681 l 413 681 l 413 778 l 753 778 l 753 972 l 72 972 l 72 583 l 267 583 l 267 389 l 72 389 l 72 0 z "},"Τ":{"ha":826,"x_min":0,"x_max":0,"o":"m 558 0 l 558 778 l 753 778 l 753 972 l 72 972 l 72 778 l 267 778 l 267 0 z "},"Υ":{"ha":826,"x_min":0,"x_max":0,"o":"m 558 0 l 558 486 l 753 486 l 753 972 l 461 972 l 461 681 l 364 681 l 364 972 l 72 972 l 72 486 l 267 486 l 267 0 z "},"Φ":{"ha":1215,"x_min":0,"x_max":0,"o":"m 1142 194 l 1142 778 l 753 778 l 753 972 l 461 972 l 461 778 l 72 778 l 72 194 l 461 194 l 461 0 l 753 0 l 753 194 z m 461 389 l 364 389 l 364 583 l 461 583 z m 850 389 l 753 389 l 753 583 l 850 583 z "},"Χ":{"ha":826,"x_min":0,"x_max":0,"o":"m 753 0 l 753 486 l 558 486 l 558 583 l 753 583 l 753 972 l 461 972 l 461 681 l 364 681 l 364 972 l 72 972 l 72 583 l 267 583 l 267 486 l 72 486 l 72 0 l 364 0 l 364 292 l 461 292 l 461 0 z "},"Ψ":{"ha":1215,"x_min":0,"x_max":0,"o":"m 753 0 l 753 389 l 1142 389 l 1142 972 l 850 972 l 850 583 l 753 583 l 753 972 l 461 972 l 461 583 l 364 583 l 364 972 l 72 972 l 72 389 l 461 389 l 461 0 z "},"Ω":{"ha":1021,"x_min":0,"x_max":0,"o":"m 947 0 l 947 194 l 753 194 l 753 306 l 947 306 l 947 972 l 72 972 l 72 306 l 267 306 l 267 194 l 72 194 l 72 0 l 461 0 l 461 403 l 364 403 l 364 778 l 656 778 l 656 403 l 558 403 l 558 0 z "},"Ϊ":{"ha":438,"x_min":0,"x_max":0,"o":"m 364 0 l 364 972 l 72 972 l 72 0 z m 169 1042 l 169 1236 l -25 1236 l -25 1042 z m 461 1042 l 461 1236 l 267 1236 l 267 1042 z "},"Ϋ":{"ha":826,"x_min":0,"x_max":0,"o":"m 558 0 l 558 486 l 753 486 l 753 972 l 461 972 l 461 681 l 364 681 l 364 972 l 72 972 l 72 486 l 267 486 l 267 0 z m 364 1042 l 364 1236 l 169 1236 l 169 1042 z m 656 1042 l 656 1236 l 461 1236 l 461 1042 z "},"ά":{"ha":826,"x_min":0,"x_max":0,"o":"m 753 0 l 753 972 l 72 972 l 72 0 l 364 0 l 364 389 l 461 389 l 461 0 z m 461 583 l 364 583 l 364 778 l 461 778 z m 607 1139 l 607 1333 l 413 1333 l 413 1236 l 315 1236 l 315 1042 l 510 1042 l 510 1139 z "},"έ":{"ha":826,"x_min":0,"x_max":0,"o":"m 753 0 l 753 194 l 364 194 l 364 389 l 656 389 l 656 583 l 364 583 l 364 778 l 753 778 l 753 972 l 72 972 l 72 0 z m 607 1139 l 607 1333 l 413 1333 l 413 1236 l 315 1236 l 315 1042 l 510 1042 l 510 1139 z "},"ή":{"ha":826,"x_min":0,"x_max":0,"o":"m 753 0 l 753 972 l 461 972 l 461 583 l 364 583 l 364 972 l 72 972 l 72 0 l 364 0 l 364 389 l 461 389 l 461 0 z m 607 1139 l 607 1333 l 413 1333 l 413 1236 l 315 1236 l 315 1042 l 510 1042 l 510 1139 z "},"ί":{"ha":438,"x_min":0,"x_max":0,"o":"m 364 0 l 364 972 l 72 972 l 72 0 z m 413 1139 l 413 1333 l 218 1333 l 218 1236 l 121 1236 l 121 1042 l 315 1042 l 315 1139 z "},"ΰ":{"ha":826,"x_min":0,"x_max":0,"o":"m 558 0 l 558 486 l 753 486 l 753 972 l 510 972 l 510 1306 l 315 1306 l 315 972 l 72 972 l 72 486 l 267 486 l 267 0 z m 801 1042 l 801 1236 l 607 1236 l 607 1042 z m 218 1042 l 218 1236 l 24 1236 l 24 1042 z m 461 681 l 364 681 l 364 972 l 461 972 z "},"α":{"ha":826,"x_min":0,"x_max":0,"o":"m 753 0 l 753 972 l 72 972 l 72 0 l 364 0 l 364 389 l 461 389 l 461 0 z m 461 583 l 364 583 l 364 778 l 461 778 z "},"β":{"ha":826,"x_min":0,"x_max":0,"o":"m 753 0 l 753 486 l 656 486 l 656 583 l 753 583 l 753 972 l 72 972 l 72 0 z m 461 583 l 364 583 l 364 778 l 461 778 z m 461 194 l 364 194 l 364 389 l 461 389 z "},"γ":{"ha":826,"x_min":0,"x_max":0,"o":"m 364 0 l 364 778 l 753 778 l 753 972 l 72 972 l 72 0 z "},"δ":{"ha":826,"x_min":0,"x_max":0,"o":"m 753 0 l 753 583 l 656 583 l 656 778 l 558 778 l 558 972 l 267 972 l 267 778 l 169 778 l 169 583 l 72 583 l 72 0 z m 461 194 l 364 194 l 364 486 l 461 486 z "},"ε":{"ha":826,"x_min":0,"x_max":0,"o":"m 753 0 l 753 194 l 364 194 l 364 389 l 656 389 l 656 583 l 364 583 l 364 778 l 753 778 l 753 972 l 72 972 l 72 0 z "},"ζ":{"ha":826,"x_min":0,"x_max":0,"o":"m 753 0 l 753 194 l 364 194 l 364 389 l 558 389 l 558 486 l 753 486 l 753 972 l 72 972 l 72 778 l 461 778 l 461 583 l 267 583 l 267 486 l 72 486 l 72 0 z "},"η":{"ha":826,"x_min":0,"x_max":0,"o":"m 753 0 l 753 972 l 461 972 l 461 583 l 364 583 l 364 972 l 72 972 l 72 0 l 364 0 l 364 389 l 461 389 l 461 0 z "},"θ":{"ha":826,"x_min":0,"x_max":0,"o":"m 753 0 l 753 972 l 72 972 l 72 0 z m 461 583 l 364 583 l 364 778 l 461 778 z m 461 194 l 364 194 l 364 389 l 461 389 z "},"ι":{"ha":438,"x_min":0,"x_max":0,"o":"m 364 0 l 364 972 l 72 972 l 72 0 z "},"κ":{"ha":826,"x_min":0,"x_max":0,"o":"m 753 0 l 753 486 l 558 486 l 558 583 l 753 583 l 753 972 l 461 972 l 461 681 l 364 681 l 364 972 l 72 972 l 72 0 l 364 0 l 364 292 l 461 292 l 461 0 z "},"λ":{"ha":826,"x_min":0,"x_max":0,"o":"m 753 0 l 753 583 l 656 583 l 656 778 l 558 778 l 558 972 l 267 972 l 267 778 l 169 778 l 169 583 l 72 583 l 72 0 l 364 0 l 364 486 l 461 486 l 461 0 z "},"μ":{"ha":1118,"x_min":0,"x_max":0,"o":"m 1044 0 l 1044 972 l 753 972 l 753 778 l 656 778 l 656 583 l 461 583 l 461 778 l 364 778 l 364 972 l 72 972 l 72 0 l 364 0 l 364 389 l 461 389 l 461 194 l 656 194 l 656 389 l 753 389 l 753 0 z "},"ν":{"ha":924,"x_min":0,"x_max":0,"o":"m 850 0 l 850 972 l 558 972 l 558 583 l 461 583 l 461 778 l 364 778 l 364 972 l 72 972 l 72 0 l 364 0 l 364 389 l 461 389 l 461 194 l 558 194 l 558 0 z "},"ξ":{"ha":826,"x_min":0,"x_max":0,"o":"m 753 778 l 753 972 l 72 972 l 72 778 z m 753 0 l 753 194 l 72 194 l 72 0 z m 558 389 l 558 583 l 267 583 l 267 389 z "},"ο":{"ha":826,"x_min":0,"x_max":0,"o":"m 753 0 l 753 972 l 72 972 l 72 0 z m 461 194 l 364 194 l 364 778 l 461 778 z "},"π":{"ha":826,"x_min":0,"x_max":0,"o":"m 753 0 l 753 972 l 72 972 l 72 0 l 364 0 l 364 778 l 461 778 l 461 0 z "},"ρ":{"ha":826,"x_min":0,"x_max":0,"o":"m 364 0 l 364 389 l 753 389 l 753 972 l 72 972 l 72 0 z m 461 583 l 364 583 l 364 778 l 461 778 z "},"ς":{"ha":826,"x_min":0,"x_max":0,"o":"m 753 0 l 753 194 l 413 194 l 413 292 l 510 292 l 510 389 l 656 389 l 656 583 l 510 583 l 510 681 l 413 681 l 413 778 l 753 778 l 753 972 l 72 972 l 72 583 l 267 583 l 267 389 l 72 389 l 72 0 z "},"σ":{"ha":826,"x_min":0,"x_max":0,"o":"m 753 0 l 753 194 l 413 194 l 413 292 l 510 292 l 510 389 l 656 389 l 656 583 l 510 583 l 510 681 l 413 681 l 413 778 l 753 778 l 753 972 l 72 972 l 72 583 l 267 583 l 267 389 l 72 389 l 72 0 z "},"τ":{"ha":826,"x_min":0,"x_max":0,"o":"m 558 0 l 558 778 l 753 778 l 753 972 l 72 972 l 72 778 l 267 778 l 267 0 z "},"υ":{"ha":826,"x_min":0,"x_max":0,"o":"m 558 0 l 558 486 l 753 486 l 753 972 l 461 972 l 461 681 l 364 681 l 364 972 l 72 972 l 72 486 l 267 486 l 267 0 z "},"φ":{"ha":1215,"x_min":0,"x_max":0,"o":"m 1142 194 l 1142 778 l 753 778 l 753 972 l 461 972 l 461 778 l 72 778 l 72 194 l 461 194 l 461 0 l 753 0 l 753 194 z m 461 389 l 364 389 l 364 583 l 461 583 z m 850 389 l 753 389 l 753 583 l 850 583 z "},"χ":{"ha":826,"x_min":0,"x_max":0,"o":"m 753 0 l 753 486 l 558 486 l 558 583 l 753 583 l 753 972 l 461 972 l 461 681 l 364 681 l 364 972 l 72 972 l 72 583 l 267 583 l 267 486 l 72 486 l 72 0 l 364 0 l 364 292 l 461 292 l 461 0 z "},"ψ":{"ha":1215,"x_min":0,"x_max":0,"o":"m 753 0 l 753 389 l 1142 389 l 1142 972 l 850 972 l 850 583 l 753 583 l 753 972 l 461 972 l 461 583 l 364 583 l 364 972 l 72 972 l 72 389 l 461 389 l 461 0 z "},"ω":{"ha":1021,"x_min":0,"x_max":0,"o":"m 947 0 l 947 194 l 753 194 l 753 292 l 947 292 l 947 972 l 72 972 l 72 292 l 267 292 l 267 194 l 72 194 l 72 0 l 461 0 l 461 389 l 364 389 l 364 778 l 656 778 l 656 389 l 558 389 l 558 0 z "},"ϊ":{"ha":438,"x_min":0,"x_max":0,"o":"m 364 0 l 364 972 l 72 972 l 72 0 z m 72 1042 l 72 1236 l -122 1236 l -122 1042 z m 364 1042 l 364 1236 l 169 1236 l 169 1042 z "},"ϋ":{"ha":826,"x_min":0,"x_max":0,"o":"m 558 0 l 558 486 l 753 486 l 753 972 l 461 972 l 461 681 l 364 681 l 364 972 l 72 972 l 72 486 l 267 486 l 267 0 z m 267 1042 l 267 1236 l 72 1236 l 72 1042 z m 558 1042 l 558 1236 l 364 1236 l 364 1042 z "},"ό":{"ha":826,"x_min":0,"x_max":0,"o":"m 753 0 l 753 972 l 72 972 l 72 0 z m 461 194 l 364 194 l 364 778 l 461 778 z m 607 1139 l 607 1333 l 413 1333 l 413 1236 l 315 1236 l 315 1042 l 510 1042 l 510 1139 z "},"ύ":{"ha":826,"x_min":0,"x_max":0,"o":"m 558 0 l 558 486 l 753 486 l 753 972 l 461 972 l 461 681 l 364 681 l 364 972 l 72 972 l 72 486 l 267 486 l 267 0 z m 607 1139 l 607 1333 l 413 1333 l 413 1236 l 315 1236 l 315 1042 l 510 1042 l 510 1139 z "},"ώ":{"ha":1021,"x_min":0,"x_max":0,"o":"m 947 0 l 947 194 l 753 194 l 753 292 l 947 292 l 947 972 l 72 972 l 72 292 l 267 292 l 267 194 l 72 194 l 72 0 l 461 0 l 461 389 l 364 389 l 364 778 l 656 778 l 656 389 l 558 389 l 558 0 z m 704 1139 l 704 1333 l 510 1333 l 510 1236 l 413 1236 l 413 1042 l 607 1042 l 607 1139 z "},"―":{"ha":1396,"x_min":0,"x_max":0,"o":"m 1322 389 l 1322 583 l 72 583 l 72 389 z "},"Ѐ":{"ha":826,"x_min":0,"x_max":0,"o":"m 753 0 l 753 194 l 364 194 l 364 389 l 656 389 l 656 583 l 364 583 l 364 778 l 753 778 l 753 972 l 72 972 l 72 0 z m 558 1042 l 558 1236 l 461 1236 l 461 1333 l 267 1333 l 267 1139 l 364 1139 l 364 1042 z "},"Ё":{"ha":826,"x_min":0,"x_max":0,"o":"m 753 0 l 753 194 l 364 194 l 364 389 l 656 389 l 656 583 l 364 583 l 364 778 l 753 778 l 753 972 l 72 972 l 72 0 z m 364 1042 l 364 1236 l 169 1236 l 169 1042 z m 656 1042 l 656 1236 l 461 1236 l 461 1042 z "},"Ђ":{"ha":1118,"x_min":0,"x_max":0,"o":"m 1044 97 l 1044 583 l 558 583 l 558 778 l 753 778 l 753 972 l 72 972 l 72 778 l 267 778 l 267 0 l 558 0 l 558 389 l 753 389 l 753 194 l 656 194 l 656 0 l 933 0 l 933 97 z "},"Ѓ":{"ha":826,"x_min":0,"x_max":0,"o":"m 364 0 l 364 778 l 753 778 l 753 972 l 72 972 l 72 0 z m 607 1139 l 607 1333 l 413 1333 l 413 1236 l 315 1236 l 315 1042 l 510 1042 l 510 1139 z "},"Є":{"ha":826,"x_min":0,"x_max":0,"o":"m 753 0 l 753 194 l 364 194 l 364 389 l 656 389 l 656 583 l 364 583 l 364 778 l 753 778 l 753 972 l 169 972 l 169 875 l 72 875 l 72 97 l 169 97 l 169 0 z "},"Ѕ":{"ha":826,"x_min":0,"x_max":0,"o":"m 753 0 l 753 583 l 364 583 l 364 778 l 753 778 l 753 972 l 72 972 l 72 389 l 461 389 l 461 194 l 72 194 l 72 0 z "},"І":{"ha":438,"x_min":0,"x_max":0,"o":"m 364 0 l 364 972 l 72 972 l 72 0 z "},"Ї":{"ha":438,"x_min":0,"x_max":0,"o":"m 364 0 l 364 972 l 72 972 l 72 0 z m 169 1042 l 169 1236 l -25 1236 l -25 1042 z m 461 1042 l 461 1236 l 267 1236 l 267 1042 z "},"Ј":{"ha":826,"x_min":0,"x_max":0,"o":"m 753 0 l 753 972 l 461 972 l 461 194 l 364 194 l 364 389 l 72 389 l 72 0 z "},"Љ":{"ha":1313,"x_min":0,"x_max":0,"o":"m 1239 0 l 1239 583 l 850 583 l 850 972 l 169 972 l 169 292 l 72 292 l 72 0 l 364 0 l 364 194 l 461 194 l 461 778 l 558 778 l 558 0 z m 947 194 l 850 194 l 850 389 l 947 389 z "},"Њ":{"ha":1215,"x_min":0,"x_max":0,"o":"m 1142 0 l 1142 583 l 753 583 l 753 972 l 461 972 l 461 583 l 364 583 l 364 972 l 72 972 l 72 0 l 364 0 l 364 389 l 461 389 l 461 0 z m 850 194 l 753 194 l 753 389 l 850 389 z "},"Ћ":{"ha":1021,"x_min":0,"x_max":0,"o":"m 947 0 l 947 583 l 558 583 l 558 778 l 753 778 l 753 972 l 72 972 l 72 778 l 267 778 l 267 0 l 558 0 l 558 389 l 656 389 l 656 0 z "},"Ќ":{"ha":826,"x_min":0,"x_max":0,"o":"m 753 0 l 753 486 l 558 486 l 558 583 l 753 583 l 753 972 l 461 972 l 461 681 l 364 681 l 364 972 l 72 972 l 72 0 l 364 0 l 364 292 l 461 292 l 461 0 z m 607 1139 l 607 1333 l 413 1333 l 413 1236 l 315 1236 l 315 1042 l 510 1042 l 510 1139 z "},"Ѝ":{"ha":924,"x_min":0,"x_max":0,"o":"m 850 0 l 850 972 l 558 972 l 558 778 l 461 778 l 461 583 l 364 583 l 364 972 l 72 972 l 72 0 l 364 0 l 364 194 l 461 194 l 461 389 l 558 389 l 558 0 z m 607 1042 l 607 1236 l 510 1236 l 510 1333 l 315 1333 l 315 1139 l 413 1139 l 413 1042 z "},"Ў":{"ha":826,"x_min":0,"x_max":0,"o":"m 461 0 l 461 194 l 558 194 l 558 389 l 656 389 l 656 583 l 753 583 l 753 972 l 461 972 l 461 583 l 364 583 l 364 972 l 72 972 l 72 583 l 176 583 l 176 389 l 279 389 l 279 194 l 72 194 l 72 0 z m 656 1042 l 656 1264 l 461 1264 l 461 1167 l 364 1167 l 364 1264 l 169 1264 l 169 1042 z "},"Џ":{"ha":826,"x_min":0,"x_max":0,"o":"m 753 0 l 753 972 l 461 972 l 461 194 l 364 194 l 364 972 l 72 972 l 72 0 l 315 0 l 315 -194 l 510 -194 l 510 0 z "},"А":{"ha":826,"x_min":0,"x_max":0,"o":"m 753 0 l 753 972 l 72 972 l 72 0 l 364 0 l 364 389 l 461 389 l 461 0 z m 461 583 l 364 583 l 364 778 l 461 778 z "},"Б":{"ha":826,"x_min":0,"x_max":0,"o":"m 753 0 l 753 583 l 364 583 l 364 778 l 753 778 l 753 972 l 72 972 l 72 0 z m 461 194 l 364 194 l 364 389 l 461 389 z "},"В":{"ha":826,"x_min":0,"x_max":0,"o":"m 753 0 l 753 486 l 656 486 l 656 583 l 753 583 l 753 972 l 72 972 l 72 0 z m 461 583 l 364 583 l 364 778 l 461 778 z m 461 194 l 364 194 l 364 389 l 461 389 z "},"Г":{"ha":826,"x_min":0,"x_max":0,"o":"m 364 0 l 364 778 l 753 778 l 753 972 l 72 972 l 72 0 z "},"Д":{"ha":1118,"x_min":0,"x_max":0,"o":"m 1044 -194 l 1044 194 l 947 194 l 947 972 l 267 972 l 267 389 l 169 389 l 169 194 l 72 194 l 72 -194 l 267 -194 l 267 0 l 850 0 l 850 -194 z m 656 194 l 461 194 l 461 292 l 558 292 l 558 778 l 656 778 z "},"Е":{"ha":826,"x_min":0,"x_max":0,"o":"m 753 0 l 753 194 l 364 194 l 364 389 l 656 389 l 656 583 l 364 583 l 364 778 l 753 778 l 753 972 l 72 972 l 72 0 z "},"Ж":{"ha":1215,"x_min":0,"x_max":0,"o":"m 1142 0 l 1142 486 l 947 486 l 947 583 l 1142 583 l 1142 972 l 850 972 l 850 681 l 753 681 l 753 972 l 461 972 l 461 681 l 364 681 l 364 972 l 72 972 l 72 583 l 267 583 l 267 486 l 72 486 l 72 0 l 364 0 l 364 292 l 461 292 l 461 0 l 753 0 l 753 292 l 850 292 l 850 0 z "},"З":{"ha":826,"x_min":0,"x_max":0,"o":"m 753 0 l 753 486 l 656 486 l 656 583 l 753 583 l 753 972 l 72 972 l 72 778 l 461 778 l 461 583 l 169 583 l 169 389 l 461 389 l 461 194 l 72 194 l 72 0 z "},"И":{"ha":924,"x_min":0,"x_max":0,"o":"m 850 0 l 850 972 l 558 972 l 558 778 l 461 778 l 461 583 l 364 583 l 364 972 l 72 972 l 72 0 l 364 0 l 364 194 l 461 194 l 461 389 l 558 389 l 558 0 z "},"Й":{"ha":924,"x_min":0,"x_max":0,"o":"m 850 0 l 850 972 l 558 972 l 558 778 l 461 778 l 461 583 l 364 583 l 364 972 l 72 972 l 72 0 l 364 0 l 364 194 l 461 194 l 461 389 l 558 389 l 558 0 z m 704 1042 l 704 1264 l 510 1264 l 510 1167 l 413 1167 l 413 1264 l 218 1264 l 218 1042 z "},"К":{"ha":826,"x_min":0,"x_max":0,"o":"m 753 0 l 753 486 l 558 486 l 558 583 l 753 583 l 753 972 l 461 972 l 461 681 l 364 681 l 364 972 l 72 972 l 72 0 l 364 0 l 364 292 l 461 292 l 461 0 z "},"Л":{"ha":924,"x_min":0,"x_max":0,"o":"m 850 0 l 850 972 l 169 972 l 169 292 l 72 292 l 72 0 l 364 0 l 364 194 l 461 194 l 461 778 l 558 778 l 558 0 z "},"М":{"ha":1118,"x_min":0,"x_max":0,"o":"m 1044 0 l 1044 972 l 753 972 l 753 778 l 656 778 l 656 583 l 461 583 l 461 778 l 364 778 l 364 972 l 72 972 l 72 0 l 364 0 l 364 389 l 461 389 l 461 194 l 656 194 l 656 389 l 753 389 l 753 0 z "},"Н":{"ha":826,"x_min":0,"x_max":0,"o":"m 753 0 l 753 972 l 461 972 l 461 583 l 364 583 l 364 972 l 72 972 l 72 0 l 364 0 l 364 389 l 461 389 l 461 0 z "},"О":{"ha":826,"x_min":0,"x_max":0,"o":"m 753 0 l 753 972 l 72 972 l 72 0 z m 461 194 l 364 194 l 364 778 l 461 778 z "},"П":{"ha":826,"x_min":0,"x_max":0,"o":"m 753 0 l 753 972 l 72 972 l 72 0 l 364 0 l 364 778 l 461 778 l 461 0 z "},"Р":{"ha":826,"x_min":0,"x_max":0,"o":"m 364 0 l 364 389 l 753 389 l 753 972 l 72 972 l 72 0 z m 461 583 l 364 583 l 364 778 l 461 778 z "},"С":{"ha":729,"x_min":0,"x_max":0,"o":"m 656 0 l 656 194 l 364 194 l 364 778 l 656 778 l 656 972 l 72 972 l 72 0 z "},"Т":{"ha":826,"x_min":0,"x_max":0,"o":"m 558 0 l 558 778 l 753 778 l 753 972 l 72 972 l 72 778 l 267 778 l 267 0 z "},"У":{"ha":826,"x_min":0,"x_max":0,"o":"m 461 0 l 461 194 l 558 194 l 558 389 l 656 389 l 656 583 l 753 583 l 753 972 l 461 972 l 461 583 l 364 583 l 364 972 l 72 972 l 72 583 l 176 583 l 176 389 l 279 389 l 279 194 l 72 194 l 72 0 z "},"Ф":{"ha":1215,"x_min":0,"x_max":0,"o":"m 1142 194 l 1142 778 l 753 778 l 753 972 l 461 972 l 461 778 l 72 778 l 72 194 l 461 194 l 461 0 l 753 0 l 753 194 z m 461 389 l 364 389 l 364 583 l 461 583 z m 850 389 l 753 389 l 753 583 l 850 583 z "},"Х":{"ha":826,"x_min":0,"x_max":0,"o":"m 753 0 l 753 486 l 558 486 l 558 583 l 753 583 l 753 972 l 461 972 l 461 681 l 364 681 l 364 972 l 72 972 l 72 583 l 267 583 l 267 486 l 72 486 l 72 0 l 364 0 l 364 292 l 461 292 l 461 0 z "},"Ц":{"ha":924,"x_min":0,"x_max":0,"o":"m 850 -194 l 850 194 l 753 194 l 753 972 l 461 972 l 461 194 l 364 194 l 364 972 l 72 972 l 72 0 l 656 0 l 656 -194 z "},"Ч":{"ha":826,"x_min":0,"x_max":0,"o":"m 753 0 l 753 972 l 461 972 l 461 583 l 364 583 l 364 972 l 72 972 l 72 389 l 461 389 l 461 0 z "},"Ш":{"ha":1215,"x_min":0,"x_max":0,"o":"m 1142 0 l 1142 972 l 850 972 l 850 194 l 753 194 l 753 972 l 461 972 l 461 194 l 364 194 l 364 972 l 72 972 l 72 0 z "},"Щ":{"ha":1313,"x_min":0,"x_max":0,"o":"m 1239 -194 l 1239 194 l 1142 194 l 1142 972 l 850 972 l 850 194 l 753 194 l 753 972 l 461 972 l 461 194 l 364 194 l 364 972 l 72 972 l 72 0 l 1044 0 l 1044 -194 z "},"Ъ":{"ha":1021,"x_min":0,"x_max":0,"o":"m 947 0 l 947 583 l 558 583 l 558 972 l 72 972 l 72 778 l 267 778 l 267 0 z m 656 194 l 558 194 l 558 389 l 656 389 z "},"Ы":{"ha":1215,"x_min":0,"x_max":0,"o":"m 753 0 l 753 583 l 364 583 l 364 972 l 72 972 l 72 0 z m 461 194 l 364 194 l 364 389 l 461 389 z m 1142 0 l 1142 972 l 850 972 l 850 0 z "},"Ь":{"ha":826,"x_min":0,"x_max":0,"o":"m 753 0 l 753 583 l 364 583 l 364 972 l 72 972 l 72 0 z m 461 194 l 364 194 l 364 389 l 461 389 z "},"Э":{"ha":826,"x_min":0,"x_max":0,"o":"m 656 0 l 656 97 l 753 97 l 753 875 l 656 875 l 656 972 l 72 972 l 72 778 l 461 778 l 461 583 l 169 583 l 169 389 l 461 389 l 461 194 l 72 194 l 72 0 z "},"Ю":{"ha":1215,"x_min":0,"x_max":0,"o":"m 1142 0 l 1142 972 l 461 972 l 461 583 l 364 583 l 364 972 l 72 972 l 72 0 l 364 0 l 364 389 l 461 389 l 461 0 z m 850 194 l 753 194 l 753 778 l 850 778 z "},"Я":{"ha":826,"x_min":0,"x_max":0,"o":"m 461 583 l 364 583 l 364 778 l 461 778 z m 753 0 l 753 972 l 72 972 l 72 583 l 169 583 l 169 486 l 72 486 l 72 0 l 364 0 l 364 389 l 461 389 l 461 0 z "},"а":{"ha":826,"x_min":0,"x_max":0,"o":"m 753 0 l 753 972 l 72 972 l 72 0 l 364 0 l 364 389 l 461 389 l 461 0 z m 461 583 l 364 583 l 364 778 l 461 778 z "},"б":{"ha":826,"x_min":0,"x_max":0,"o":"m 753 0 l 753 583 l 364 583 l 364 778 l 753 778 l 753 972 l 72 972 l 72 0 z m 461 194 l 364 194 l 364 389 l 461 389 z "},"в":{"ha":826,"x_min":0,"x_max":0,"o":"m 753 0 l 753 486 l 656 486 l 656 583 l 753 583 l 753 972 l 72 972 l 72 0 z m 461 583 l 364 583 l 364 778 l 461 778 z m 461 194 l 364 194 l 364 389 l 461 389 z "},"г":{"ha":826,"x_min":0,"x_max":0,"o":"m 364 0 l 364 778 l 753 778 l 753 972 l 72 972 l 72 0 z "},"д":{"ha":1118,"x_min":0,"x_max":0,"o":"m 1044 -194 l 1044 194 l 947 194 l 947 972 l 267 972 l 267 389 l 169 389 l 169 194 l 72 194 l 72 -194 l 267 -194 l 267 0 l 850 0 l 850 -194 z m 656 194 l 461 194 l 461 292 l 558 292 l 558 778 l 656 778 z "},"е":{"ha":826,"x_min":0,"x_max":0,"o":"m 753 0 l 753 194 l 364 194 l 364 389 l 656 389 l 656 583 l 364 583 l 364 778 l 753 778 l 753 972 l 72 972 l 72 0 z "},"ж":{"ha":1215,"x_min":0,"x_max":0,"o":"m 1142 0 l 1142 486 l 947 486 l 947 583 l 1142 583 l 1142 972 l 850 972 l 850 681 l 753 681 l 753 972 l 461 972 l 461 681 l 364 681 l 364 972 l 72 972 l 72 583 l 267 583 l 267 486 l 72 486 l 72 0 l 364 0 l 364 292 l 461 292 l 461 0 l 753 0 l 753 292 l 850 292 l 850 0 z "},"з":{"ha":826,"x_min":0,"x_max":0,"o":"m 753 0 l 753 486 l 656 486 l 656 583 l 753 583 l 753 972 l 72 972 l 72 778 l 461 778 l 461 583 l 169 583 l 169 389 l 461 389 l 461 194 l 72 194 l 72 0 z "},"и":{"ha":924,"x_min":0,"x_max":0,"o":"m 850 0 l 850 972 l 558 972 l 558 778 l 461 778 l 461 583 l 364 583 l 364 972 l 72 972 l 72 0 l 364 0 l 364 194 l 461 194 l 461 389 l 558 389 l 558 0 z "},"й":{"ha":924,"x_min":0,"x_max":0,"o":"m 850 0 l 850 972 l 558 972 l 558 778 l 461 778 l 461 583 l 364 583 l 364 972 l 72 972 l 72 0 l 364 0 l 364 194 l 461 194 l 461 389 l 558 389 l 558 0 z m 704 1042 l 704 1264 l 510 1264 l 510 1167 l 413 1167 l 413 1264 l 218 1264 l 218 1042 z "},"к":{"ha":826,"x_min":0,"x_max":0,"o":"m 753 0 l 753 486 l 558 486 l 558 583 l 753 583 l 753 972 l 461 972 l 461 681 l 364 681 l 364 972 l 72 972 l 72 0 l 364 0 l 364 292 l 461 292 l 461 0 z "},"л":{"ha":924,"x_min":0,"x_max":0,"o":"m 850 0 l 850 972 l 169 972 l 169 292 l 72 292 l 72 0 l 364 0 l 364 194 l 461 194 l 461 778 l 558 778 l 558 0 z "},"м":{"ha":1118,"x_min":0,"x_max":0,"o":"m 1044 0 l 1044 972 l 753 972 l 753 778 l 656 778 l 656 583 l 461 583 l 461 778 l 364 778 l 364 972 l 72 972 l 72 0 l 364 0 l 364 389 l 461 389 l 461 194 l 656 194 l 656 389 l 753 389 l 753 0 z "},"н":{"ha":826,"x_min":0,"x_max":0,"o":"m 753 0 l 753 972 l 461 972 l 461 583 l 364 583 l 364 972 l 72 972 l 72 0 l 364 0 l 364 389 l 461 389 l 461 0 z "},"о":{"ha":826,"x_min":0,"x_max":0,"o":"m 753 0 l 753 972 l 72 972 l 72 0 z m 461 194 l 364 194 l 364 778 l 461 778 z "},"п":{"ha":826,"x_min":0,"x_max":0,"o":"m 753 0 l 753 972 l 72 972 l 72 0 l 364 0 l 364 778 l 461 778 l 461 0 z "},"р":{"ha":826,"x_min":0,"x_max":0,"o":"m 364 0 l 364 389 l 753 389 l 753 972 l 72 972 l 72 0 z m 461 583 l 364 583 l 364 778 l 461 778 z "},"с":{"ha":729,"x_min":0,"x_max":0,"o":"m 656 0 l 656 194 l 364 194 l 364 778 l 656 778 l 656 972 l 72 972 l 72 0 z "},"т":{"ha":826,"x_min":0,"x_max":0,"o":"m 558 0 l 558 778 l 753 778 l 753 972 l 72 972 l 72 778 l 267 778 l 267 0 z "},"у":{"ha":826,"x_min":0,"x_max":0,"o":"m 461 0 l 461 194 l 558 194 l 558 389 l 656 389 l 656 583 l 753 583 l 753 972 l 461 972 l 461 583 l 364 583 l 364 972 l 72 972 l 72 583 l 176 583 l 176 389 l 279 389 l 279 194 l 72 194 l 72 0 z "},"ф":{"ha":1215,"x_min":0,"x_max":0,"o":"m 1142 194 l 1142 778 l 753 778 l 753 972 l 461 972 l 461 778 l 72 778 l 72 194 l 461 194 l 461 0 l 753 0 l 753 194 z m 461 389 l 364 389 l 364 583 l 461 583 z m 850 389 l 753 389 l 753 583 l 850 583 z "},"х":{"ha":826,"x_min":0,"x_max":0,"o":"m 753 0 l 753 486 l 558 486 l 558 583 l 753 583 l 753 972 l 461 972 l 461 681 l 364 681 l 364 972 l 72 972 l 72 583 l 267 583 l 267 486 l 72 486 l 72 0 l 364 0 l 364 292 l 461 292 l 461 0 z "},"ц":{"ha":924,"x_min":0,"x_max":0,"o":"m 850 -194 l 850 194 l 753 194 l 753 972 l 461 972 l 461 194 l 364 194 l 364 972 l 72 972 l 72 0 l 656 0 l 656 -194 z "},"ч":{"ha":826,"x_min":0,"x_max":0,"o":"m 753 0 l 753 972 l 461 972 l 461 583 l 364 583 l 364 972 l 72 972 l 72 389 l 461 389 l 461 0 z "},"ш":{"ha":1215,"x_min":0,"x_max":0,"o":"m 1142 0 l 1142 972 l 850 972 l 850 194 l 753 194 l 753 972 l 461 972 l 461 194 l 364 194 l 364 972 l 72 972 l 72 0 z "},"щ":{"ha":1313,"x_min":0,"x_max":0,"o":"m 1239 -194 l 1239 194 l 1142 194 l 1142 972 l 850 972 l 850 194 l 753 194 l 753 972 l 461 972 l 461 194 l 364 194 l 364 972 l 72 972 l 72 0 l 1044 0 l 1044 -194 z "},"ъ":{"ha":1021,"x_min":0,"x_max":0,"o":"m 947 0 l 947 583 l 558 583 l 558 972 l 72 972 l 72 778 l 267 778 l 267 0 z m 656 194 l 558 194 l 558 389 l 656 389 z "},"ы":{"ha":1215,"x_min":0,"x_max":0,"o":"m 753 0 l 753 583 l 364 583 l 364 972 l 72 972 l 72 0 z m 461 194 l 364 194 l 364 389 l 461 389 z m 1142 0 l 1142 972 l 850 972 l 850 0 z "},"ь":{"ha":826,"x_min":0,"x_max":0,"o":"m 753 0 l 753 583 l 364 583 l 364 972 l 72 972 l 72 0 z m 461 194 l 364 194 l 364 389 l 461 389 z "},"э":{"ha":826,"x_min":0,"x_max":0,"o":"m 656 0 l 656 97 l 753 97 l 753 875 l 656 875 l 656 972 l 72 972 l 72 778 l 461 778 l 461 583 l 169 583 l 169 389 l 461 389 l 461 194 l 72 194 l 72 0 z "},"ю":{"ha":1215,"x_min":0,"x_max":0,"o":"m 1142 0 l 1142 972 l 461 972 l 461 583 l 364 583 l 364 972 l 72 972 l 72 0 l 364 0 l 364 389 l 461 389 l 461 0 z m 850 194 l 753 194 l 753 778 l 850 778 z "},"я":{"ha":826,"x_min":0,"x_max":0,"o":"m 461 583 l 364 583 l 364 778 l 461 778 z m 753 0 l 753 972 l 72 972 l 72 583 l 169 583 l 169 486 l 72 486 l 72 0 l 364 0 l 364 389 l 461 389 l 461 0 z "},"ѐ":{"ha":826,"x_min":0,"x_max":0,"o":"m 753 0 l 753 194 l 364 194 l 364 389 l 656 389 l 656 583 l 364 583 l 364 778 l 753 778 l 753 972 l 72 972 l 72 0 z m 558 1042 l 558 1236 l 461 1236 l 461 1333 l 267 1333 l 267 1139 l 364 1139 l 364 1042 z "},"ё":{"ha":826,"x_min":0,"x_max":0,"o":"m 753 0 l 753 194 l 364 194 l 364 389 l 656 389 l 656 583 l 364 583 l 364 778 l 753 778 l 753 972 l 72 972 l 72 0 z m 364 1042 l 364 1236 l 169 1236 l 169 1042 z m 656 1042 l 656 1236 l 461 1236 l 461 1042 z "},"ђ":{"ha":1118,"x_min":0,"x_max":0,"o":"m 1044 97 l 1044 583 l 558 583 l 558 778 l 753 778 l 753 972 l 72 972 l 72 778 l 267 778 l 267 0 l 558 0 l 558 389 l 753 389 l 753 194 l 656 194 l 656 0 l 933 0 l 933 97 z "},"ѓ":{"ha":826,"x_min":0,"x_max":0,"o":"m 364 0 l 364 778 l 753 778 l 753 972 l 72 972 l 72 0 z m 607 1139 l 607 1333 l 413 1333 l 413 1236 l 315 1236 l 315 1042 l 510 1042 l 510 1139 z "},"є":{"ha":826,"x_min":0,"x_max":0,"o":"m 753 0 l 753 194 l 364 194 l 364 389 l 656 389 l 656 583 l 364 583 l 364 778 l 753 778 l 753 972 l 169 972 l 169 875 l 72 875 l 72 97 l 169 97 l 169 0 z "},"ѕ":{"ha":826,"x_min":0,"x_max":0,"o":"m 753 0 l 753 583 l 364 583 l 364 778 l 753 778 l 753 972 l 72 972 l 72 389 l 461 389 l 461 194 l 72 194 l 72 0 z "},"і":{"ha":438,"x_min":0,"x_max":0,"o":"m 364 0 l 364 972 l 72 972 l 72 0 z "},"ї":{"ha":438,"x_min":0,"x_max":0,"o":"m 364 0 l 364 972 l 72 972 l 72 0 z m 169 1042 l 169 1236 l -25 1236 l -25 1042 z m 461 1042 l 461 1236 l 267 1236 l 267 1042 z "},"ј":{"ha":826,"x_min":0,"x_max":0,"o":"m 753 0 l 753 972 l 461 972 l 461 194 l 364 194 l 364 389 l 72 389 l 72 0 z "},"љ":{"ha":1313,"x_min":0,"x_max":0,"o":"m 1239 0 l 1239 583 l 850 583 l 850 972 l 169 972 l 169 292 l 72 292 l 72 0 l 364 0 l 364 194 l 461 194 l 461 778 l 558 778 l 558 0 z m 947 194 l 850 194 l 850 389 l 947 389 z "},"њ":{"ha":1215,"x_min":0,"x_max":0,"o":"m 1142 0 l 1142 583 l 753 583 l 753 972 l 461 972 l 461 583 l 364 583 l 364 972 l 72 972 l 72 0 l 364 0 l 364 389 l 461 389 l 461 0 z m 850 194 l 753 194 l 753 389 l 850 389 z "},"ћ":{"ha":1021,"x_min":0,"x_max":0,"o":"m 947 0 l 947 583 l 558 583 l 558 778 l 753 778 l 753 972 l 72 972 l 72 778 l 267 778 l 267 0 l 558 0 l 558 389 l 656 389 l 656 0 z "},"ќ":{"ha":826,"x_min":0,"x_max":0,"o":"m 753 0 l 753 486 l 558 486 l 558 583 l 753 583 l 753 972 l 461 972 l 461 681 l 364 681 l 364 972 l 72 972 l 72 0 l 364 0 l 364 292 l 461 292 l 461 0 z m 607 1139 l 607 1333 l 413 1333 l 413 1236 l 315 1236 l 315 1042 l 510 1042 l 510 1139 z "},"ѝ":{"ha":924,"x_min":0,"x_max":0,"o":"m 850 0 l 850 972 l 558 972 l 558 778 l 461 778 l 461 583 l 364 583 l 364 972 l 72 972 l 72 0 l 364 0 l 364 194 l 461 194 l 461 389 l 558 389 l 558 0 z m 607 1042 l 607 1236 l 510 1236 l 510 1333 l 315 1333 l 315 1139 l 413 1139 l 413 1042 z "},"ў":{"ha":826,"x_min":0,"x_max":0,"o":"m 461 0 l 461 194 l 558 194 l 558 389 l 656 389 l 656 583 l 753 583 l 753 972 l 461 972 l 461 583 l 364 583 l 364 972 l 72 972 l 72 583 l 176 583 l 176 389 l 279 389 l 279 194 l 72 194 l 72 0 z m 656 1042 l 656 1264 l 461 1264 l 461 1167 l 364 1167 l 364 1264 l 169 1264 l 169 1042 z "},"џ":{"ha":826,"x_min":0,"x_max":0,"o":"m 753 0 l 753 972 l 461 972 l 461 194 l 364 194 l 364 972 l 72 972 l 72 0 l 315 0 l 315 -194 l 510 -194 l 510 0 z "},"Ґ":{"ha":826,"x_min":0,"x_max":0,"o":"m 753 778 l 753 1167 l 558 1167 l 558 972 l 72 972 l 72 0 l 364 0 l 364 778 z "},"ґ":{"ha":826,"x_min":0,"x_max":0,"o":"m 753 778 l 753 1167 l 558 1167 l 558 972 l 72 972 l 72 0 l 364 0 l 364 778 z "},"":{"ha":1454,"x_min":0,"x_max":0,"o":"m 869 0 l 1008 700 l 729 972 l 449 700 l 588 0 z m 518 0 l 449 351 l 218 465 l 97 238 l 281 0 z m 1176 0 l 1357 238 l 1240 465 l 1008 351 l 940 0 z "}}}
